<?xml version="1.0" encoding="UTF-8" standalone="no"?>
<!-- Uploaded to: SVG Repo, www.svgrepo.com, Generator: SVG Repo Mixer Tools -->

<svg
   fill="#000000"
   height="800px"
   width="800px"
   version="1.1"
   id="Capa_1"
   viewBox="0 0 490 490"
   xml:space="preserve"
   sodipodi:docname="folders-svgrepo-com.svg"
   inkscape:version="1.2.2 (b0a8486541, 2022-12-01)"
   xmlns:inkscape="http://www.inkscape.org/namespaces/inkscape"
   xmlns:sodipodi="http://sodipodi.sourceforge.net/DTD/sodipodi-0.dtd"
   xmlns="http://www.w3.org/2000/svg"
   xmlns:svg="http://www.w3.org/2000/svg"><defs
   id="defs671" /><sodipodi:namedview
   id="namedview669"
   pagecolor="#ffffff"
   bordercolor="#000000"
   borderopacity="0.25"
   inkscape:showpageshadow="2"
   inkscape:pageopacity="0.0"
   inkscape:pagecheckerboard="0"
   inkscape:deskcolor="#d1d1d1"
   showgrid="false"
   inkscape:zoom="0.49409086"
   inkscape:cx="493.83629"
   inkscape:cy="442.22635"
   inkscape:window-width="1334"
   inkscape:window-height="744"
   inkscape:window-x="26"
   inkscape:window-y="0"
   inkscape:window-maximized="1"
   inkscape:current-layer="Capa_1" />
<g
   id="g666"
   style="fill:#eeeedd;fill-opacity:1">
	<g
   id="g664"
   style="fill:#eeeedd;fill-opacity:1">
		<path
   d="M21.8,13.6v462.7h169.5V13.6H21.8z M106.6,436.7c-24.5,0-44.3-19.8-44.3-44.3S82.1,348,106.6,348s44.3,19.8,44.3,44.3    C150.5,416.9,131.1,436.7,106.6,436.7z M153.6,170.7H59.1V52.9h94.5V170.7z"
   id="path660"
   style="fill:#eeeedd;fill-opacity:1" />
		<path
   d="M355.8,0L213.5,35.8v94.5L303.7,490l164.5-41.2L355.8,0z M269.1,177.3L243.4,74.7l82.1-20.2l25.7,102.7L269.1,177.3z     M376.3,430c-22.9,5.9-46.4-7.9-52.3-30.8s7.9-46.3,30.8-52.3c22.9-5.9,46.4,7.9,52.3,30.8C413,400.7,399.2,424.1,376.3,430z"
   id="path662"
   style="fill:#eeeedd;fill-opacity:1" />
	</g>
</g>
</svg>
