<?xml version="1.0" encoding="UTF-8" standalone="no"?>
<!-- Generator: Adobe Illustrator 23.0.1, SVG Export Plug-In . SVG Version: 6.00 Build 0)  -->

<svg
   version="1.1"
   x="0px"
   y="0px"
   viewBox="0 0 52.305999 69.209999"
   xml:space="preserve"
   id="svg12338"
   width="52.306"
   height="69.209999"
   xmlns="http://www.w3.org/2000/svg"
   xmlns:svg="http://www.w3.org/2000/svg"><defs
   id="defs12342" />
<style
   type="text/css"
   id="style12284">
	.st0{fill:none;stroke:#000000;stroke-width:0.5;stroke-linecap:round;stroke-linejoin:round;}
	.st1{font-family:'Roboto-Regular';}
	.st2{font-size:14px;}
</style>
<path
   class="st0"
   d="M 7.132,1.785 7.602,0.321 7.843,0 l 0.131,0.033 8.353,1.643 14.836,-0.192 0.402,0.013 0.098,0.032 0.065,0.042 0.044,0.049 0.069,0.112 0.105,0.246 0.036,0.135 0.122,1.034 0.016,0.07 0.043,0.13 0.028,0.062 0.177,0.263 0.215,0.263 0.138,0.225 0.051,0.124 0.014,0.071 -0.003,0.109 -0.019,0.141 -0.293,1.072 -0.01,0.123 0.025,0.142 0.003,0.076 -0.02,0.092 -0.046,0.101 -0.169,0.204 -0.6,0.439 -0.123,0.055 -0.066,0.018 -0.146,0.022 -0.503,-0.026 -0.505,0.079 h -0.802 l -0.065,0.02 -0.062,0.026 -0.055,0.04 -0.235,0.235 -0.204,0.169 -0.058,0.034 -0.107,0.076 -0.093,0.097 -0.039,0.07 -0.031,0.086 -0.026,0.127 -0.029,0.357 0.014,0.554 0.159,0.639 0.26,0.488 1.006,1.504999 0.992,1.259001 0.178,0.601 0.101,0.164 0.308,0.339 0.471,1.133 0.227,0.311 0.798,0.903 0.371,0.387 0.113,0.083 0.066,0.035 0.072,0.028 0.078,0.017 0.09,-0.013 0.095,-0.036 0.126,-0.099 0.067,-0.079 0.047,-0.081 0.556,-1.398 0.144,-0.256 0.091,-0.102 0.053,-0.039 0.337,-0.184 0.226,-0.467 0.107,-0.133 0.13,-0.098 0.194,-0.072 0.211,-0.025 0.222,0.023 0.207,0.06 0.163,0.113 0.273,0.41 0.311,0.346 0.523,0.278 -0.1,0.305 -0.081,0.094 -0.135,0.134 -0.177,0.21 -0.077,0.191 -0.023,0.272 10e-4,0.222 -0.053,0.288 -0.115,0.381 -0.284,0.586 -0.207,0.663 -0.029,0.219 0.016,0.158 0.056,0.182 0.197,0.279 0.19,0.137 0.267,0.065 0.252,0.031 0.312,0.1 0.271,0.132 0.186,0.122 0.421,0.429 0.796,0.66 0.545,0.265 0.054,0.044 0.049,0.047 0.076,0.109 0.029,0.061 0.026,0.07 0.018,0.099 0.015,0.137 -0.002,0.172 -0.013,0.122 -0.184,0.787 -0.019,0.181 0.017,0.792 -0.014,0.158 -0.049,0.216 -0.141,0.329 -0.332,0.557 -0.858,0.868 -0.415,0.451 -0.295,0.383 -0.233,0.402 -0.044,0.179 -0.051,0.154 -0.034,0.066 -0.082,0.127 -0.252,0.265 -0.261,0.218 -0.395,0.44 -0.215,0.507 -0.316,0.481 -0.029,0.069 -0.014,0.074 0.05,0.081 0.103,0.075 0.244,0.1 0.269,0.068 0.419,0.039 0.135,0.062 0.882,0.522 0.365,0.038 0.073,0.016 0.079,0.032 0.051,0.096 0.009,0.075 -0.121,0.33 0.427,2.048 0.154,0.333 0.09,0.593 0.038,0.139 0.05,0.086 0.076,0.099 0.161,0.163 0.107,0.076 0.168,0.086 0.072,0.085 0.069,0.133 0.162,0.554 0.051,0.295 0.051,0.172 0.075,0.129 0.053,0.071 0.238,0.154 0.316,-0.085 0.149,-0.076 0.109,-0.079 h 0.199 l 0.554,0.295 0.126,0.116 0.048,0.088 0.126,0.409 0.119,0.742 0.181,0.532 0.117,0.174 1.038,1.29 0.156,0.058 0.081,-0.121 0.271,-0.634 0.02,-0.036 0.31,-0.434 0.069,-0.073 0.407,-0.332 0.384,-0.39 1.03,-0.642 0.084,-0.014 0.107,0.019 0.19,0.106 0.178,0.133 0.25,0.235 0.235,0.165 0.265,0.139 0.184,0.056 0.15,0.013 0.229,-0.045 0.341,-0.16 1.107,5.089 0.085,2.089 -0.074,0.804 -0.153,0.347 -0.155,0.213 -0.289,0.324 -0.172,0.258 -0.143,0.335 -0.081,0.065 -0.206,0.104 -0.045,0.073 -0.017,0.08 0.008,0.493 0.014,0.074 0.032,0.058 0.044,0.024 0.103,0.025 0.515,0.291 0.249,0.228 0.046,0.083 0.028,0.076 0.044,0.212 0.215,2.757 -0.052,1.159 0.54,4.121 0.535,1.303 0.8,1.427 0.116,0.276 0.036,0.066 0.132,0.303 0.264,0.36 -0.845,0.309 -0.129,0.446 0.373,3.282 -0.023,0.275 -0.126,0.238 -1.332,1.509 -1.065,1.115 -0.615,0.338 -2.629,0.759 -2.054,-4.225 -0.449,-1.296 -0.751,-1.644 -0.776,-1.883 -0.139,-0.521 -0.149,-0.874 -0.007,-0.183 0.014,-0.256 -0.012,-0.661 -0.025,-0.15 -0.066,-0.214 -0.39,-0.699 -2.189,-2.187 -0.111,-0.075 -0.262,-0.126 -1.491,-1.548 -0.54,-0.377 -2.076,-0.974 -0.233,-0.169 -0.11,-0.112 -0.181,-0.265 -0.024,-0.068 -0.005,-0.09 0.022,-0.107 0.092,-0.178 0.064,-0.097 0.106,-0.127 0.233,-0.38 0.029,-0.08 0.016,-0.09 -0.023,-0.117 -0.025,-0.07 -0.173,-0.121 -0.264,-0.122 -0.068,-0.041 -0.223,-0.17 -0.402,-0.392 -0.434,-0.622 -0.114,-0.238 -0.152,-1.134 -0.119,-0.476 -0.033,-0.068 -0.046,-0.077 -0.089,-0.12 -0.107,-0.178 -0.393,-0.33 -0.419,-0.556 -2.401,-1.028 -2.42,-0.883 -0.396,0.004 -0.275,0.162 -0.147,0.068 -0.074,0.053 -0.042,0.039 -0.036,0.056 -0.035,0.067 -0.028,0.068 -0.054,0.086 -0.212,0.255 -0.098,0.096 -0.109,0.08 -0.165,0.053 -0.924,0.154 -0.898,0.028 -5.463,-0.267 -0.773,0.199 -0.202,0.093 -0.311,0.282 -0.189,0.03 -0.107,-0.166 -0.054,-0.134 -0.036,-0.222 -0.021,-0.069 -0.029,-0.059 -0.078,-0.111 -0.18,-0.206 -0.578,-0.835 -0.028,-0.063 -0.134,-0.481 -0.039,-0.546 -0.05,-0.211 10e-4,-0.082 0.039,-0.272 -10e-4,-0.082 -0.032,-0.068 -0.079,-0.052 -0.125,-0.037 -0.168,0.011 -0.096,0.033 -0.194,0.104 -0.128,0.017 h -0.191 l -0.071,0.012 -0.194,0.076 -0.235,0.135 -0.254,0.104 -0.141,0.033 -0.095,-0.012 -0.113,-0.047 -0.161,-0.121 -0.136,-0.158 -0.034,-0.058 -0.124,-0.162 -0.1,-0.095 -0.063,-0.038 -0.121,-0.055 -0.536,-0.159 -0.319,-0.052 -0.386,0.037 -0.086,-0.009 -0.099,-0.032 -0.1,-0.053 -0.128,-0.11 -0.116,-0.151 -0.13,-0.236 L 9.89,39.528 9.782,39.436 9.664,39.354 9.575,39.315 9.46,39.282 9.261,39.255 9.037,39.251 8.883,39.265 8.792,39.251 8.697,39.219 8.534,39.1 8.511,39.076 8.503,39.057 8.465,38.948 8.453,38.876 8.449,38.796 8.471,38.615 8.645,37.908 8.659,37.82 8.663,37.738 8.65,37.663 8.628,37.6 8.498,37.361 8.471,37.298 8.44,37.156 8.433,36.999 8.447,36.829 8.465,36.74 8.666,36.077 8.688,35.903 8.687,35.823 8.68,35.745 8.664,35.676 8.637,35.612 8.601,35.556 8.511,35.506 8.378,35.464 7.812,35.404 7.687,35.432 7.543,35.488 7.394,35.6 7.302,35.703 7.199,35.793 7.142,35.828 6.952,35.909 6.858,35.918 6.745,35.914 6.558,35.871 6.451,35.83 6.18,35.668 6.101,35.64 5.996,35.626 5.868,35.63 5.554,35.707 4.686,35.818 4.567,35.853 4.325,35.976 3.499,36.206 0.167,35.937 0,35.912 0.12,35.385 0.195,35.214 0.317,35.126 0.652,34.959 0.717,34.853 0.665,34.649 0.573,34.478 0.502,34.301 0.513,34.074 0.597,33.923 0.874,33.655 0.986,33.511 1.297,32.84 1.415,32.466 1.449,32.131 1.405,31.947 1.397,31.759 1.435,31.58 l 0.089,-0.16 0.204,-0.155 0.43,-0.231 0.197,-0.169 0.138,-0.189 0.595,-1.389 0.046,-0.228 -0.025,-0.546 0.02,-0.243 0.11,-0.319 0.513,-0.863 0.181,-0.217 0.163,-0.104 0.453,-0.113 0.562,0.029 0.44,0.28 0.411,0.336 0.477,0.2 0.306,-0.04 L 6.874,27.273 6.95,26.999 7.095,26.693 7.312,26.457 7.58,26.271 7.872,26.157 8.501,26.13 8.758,26.066 9.309,25.823 9.443,25.81 9.796,25.839 9.886,25.83 9.911,25.726 9.877,25.378 9.902,25.211 9.967,24.947 10.169,24.445 10.234,24.197 10.194,23.802 10.012,23.417 7.674,20.096 7.256,19.548 6.937,19.016 6.725,18.433 6.628,17.733 6.645,16.653 6.726,16.095 6.876,15.621 7.233,15.149 8.786,13.917 8.919,13.437 8.82,12.743 7.967,9.226 7.818,8.11 7.706,7.754 7.53,7.436 7.291,7.186 7.069,6.854 7.049,6.475 7.066,6.111 6.953,5.828 7.123,5.621 6.981,5.336 6.534,4.777 6.468,4.535 6.447,4.28 6.496,3.773 Z"
   id="path12300"
   style="fill:#eeeedd;fill-opacity:1;stroke:none" />

</svg>
