<?xml version="1.0" encoding="UTF-8" standalone="no"?>
<!-- Uploaded to: SVG Repo, www.svgrepo.com, Generator: SVG Repo Mixer Tools -->

<svg
   fill="#000000"
   version="1.1"
   id="Capa_1"
   viewBox="0 0 489.8 489.8"
   xml:space="preserve"
   sodipodi:docname="building-svgrepo-com.svg"
   inkscape:version="1.2.2 (b0a8486541, 2022-12-01)"
   xmlns:inkscape="http://www.inkscape.org/namespaces/inkscape"
   xmlns:sodipodi="http://sodipodi.sourceforge.net/DTD/sodipodi-0.dtd"
   xmlns="http://www.w3.org/2000/svg"
   xmlns:svg="http://www.w3.org/2000/svg"><defs
   id="defs1291">
	
</defs><sodipodi:namedview
   id="namedview1289"
   pagecolor="#ffffff"
   bordercolor="#000000"
   borderopacity="0.25"
   inkscape:showpageshadow="2"
   inkscape:pageopacity="0.0"
   inkscape:pagecheckerboard="0"
   inkscape:deskcolor="#d1d1d1"
   showgrid="false"
   inkscape:zoom="0.57064109"
   inkscape:cx="318.93953"
   inkscape:cy="253.22396"
   inkscape:window-width="1334"
   inkscape:window-height="744"
   inkscape:window-x="26"
   inkscape:window-y="0"
   inkscape:window-maximized="1"
   inkscape:current-layer="Capa_1" />
<g
   id="g1284"
   style="fill:#eeeedd;fill-opacity:1">
		<rect
   x="204.95"
   y="387.20001"
   width="80.5"
   height="102.6"
   id="rect1280"
   style="fill:#eeeedd;fill-opacity:1" />
		<path
   d="m 0.05,0 v 489.8 h 178.4 V 372.4 c 0,-8.2 5.8,-14.8 13.2,-14.8 h 106.5 c 7.4,0 13.2,6.6 13.2,14.8 v 117.4 h 178.4 V 0 Z m 114.7,312.5 h -54 v -54 h 54 z m 0,-101 h -54 v -54 h 54 z m 0,-101.1 h -54 V 56 h 54 z m 104.9,202.1 h -54.4 v -54 h 54 v 54 z m 0,-101 h -54.4 v -54 h 54 v 54 z m 0,-101.1 h -54.4 V 56 h 54 v 54.4 z m 105,202.1 h -54.4 v -54 h 54 v 54 z m 0,-101 h -54.4 v -54 h 54 v 54 z m 0,-101.1 h -54.4 V 56 h 54 v 54.4 z m 104.6,202.1 h -54 v -54 h 54 z m 0,-101 h -54 v -54 h 54 z m 0,-101.1 h -54 V 56 h 54 z"
   id="path1282"
   style="fill:#eeeedd;fill-opacity:1" />
	</g>
</svg>
