<?xml version="1.0" encoding="UTF-8" standalone="no"?>
<!-- Uploaded to: SVG Repo, www.svgrepo.com, Generator: SVG Repo Mixer Tools -->

<svg
   fill="#000000"
   width="800px"
   height="800px"
   viewBox="0 0 24 24"
   version="1.1"
   id="svg1157"
   sodipodi:docname="bed-svgrepo-com.svg"
   inkscape:version="1.2.2 (b0a8486541, 2022-12-01)"
   xmlns:inkscape="http://www.inkscape.org/namespaces/inkscape"
   xmlns:sodipodi="http://sodipodi.sourceforge.net/DTD/sodipodi-0.dtd"
   xmlns="http://www.w3.org/2000/svg"
   xmlns:svg="http://www.w3.org/2000/svg">
  <defs
     id="defs1161" />
  <sodipodi:namedview
     id="namedview1159"
     pagecolor="#ffffff"
     bordercolor="#000000"
     borderopacity="0.25"
     inkscape:showpageshadow="2"
     inkscape:pageopacity="0.0"
     inkscape:pagecheckerboard="0"
     inkscape:deskcolor="#d1d1d1"
     showgrid="false"
     inkscape:zoom="0.69875"
     inkscape:cx="399.28444"
     inkscape:cy="404.29338"
     inkscape:window-width="1334"
     inkscape:window-height="744"
     inkscape:window-x="26"
     inkscape:window-y="0"
     inkscape:window-maximized="1"
     inkscape:current-layer="svg1157" />
  <path
     d="M20,12V4a1,1,0,0,0-2,0V6H6V4A1,1,0,0,0,4,4v8a2,2,0,0,0-2,2v6a1,1,0,0,0,2,0V18H20v2a1,1,0,0,0,2,0V14A2,2,0,0,0,20,12Zm-6-2h3a1,1,0,0,1,1,1v1H13V11A1,1,0,0,1,14,10ZM6,11a1,1,0,0,1,1-1h3a1,1,0,0,1,1,1v1H6Z"
     id="path1155"
     style="fill:#eeeedd;fill-opacity:1" />
</svg>
