<?xml version="1.0" encoding="UTF-8" standalone="no"?>
<!-- Generator: Adobe Illustrator 15.0.0, SVG Export Plug-In . SVG Version: 6.00 Build 0)  -->

<svg
   version="1.1"
   id="Icons"
   x="0px"
   y="0px"
   width="100px"
   height="100px"
   viewBox="0 0 100 100"
   style="enable-background:new 0 0 100 100;"
   xml:space="preserve"
   sodipodi:docname="facebook_places.svg"
   inkscape:version="1.2.2 (b0a8486541, 2022-12-01)"
   xmlns:inkscape="http://www.inkscape.org/namespaces/inkscape"
   xmlns:sodipodi="http://sodipodi.sourceforge.net/DTD/sodipodi-0.dtd"
   xmlns="http://www.w3.org/2000/svg"
   xmlns:svg="http://www.w3.org/2000/svg"><defs
   id="defs286" /><sodipodi:namedview
   id="namedview284"
   pagecolor="#ffffff"
   bordercolor="#000000"
   borderopacity="0.25"
   inkscape:showpageshadow="2"
   inkscape:pageopacity="0.0"
   inkscape:pagecheckerboard="0"
   inkscape:deskcolor="#d1d1d1"
   showgrid="false"
   inkscape:zoom="2.795"
   inkscape:cx="52.236136"
   inkscape:cy="65.652952"
   inkscape:window-width="1334"
   inkscape:window-height="744"
   inkscape:window-x="26"
   inkscape:window-y="0"
   inkscape:window-maximized="1"
   inkscape:current-layer="Icons" />
<path
   id="Facebook_Places"
   d="M79.535,27.4c-0.32-1.201-0.971-2.48-1.452-3.6C72.324,9.96,59.741,5,49.581,5  C35.98,5,21,14.12,19,32.919v3.841c0,0.16,0.055,1.6,0.134,2.32c1.121,8.959,8.19,18.48,13.47,27.439  c5.68,9.599,11.574,19.041,17.414,28.48c3.6-6.159,7.188-12.399,10.706-18.4c0.96-1.76,2.073-3.52,3.033-5.2  c0.64-1.119,1.862-2.239,2.421-3.28C71.857,57.72,81,47.24,81,36.92v-4.24C81,31.561,79.614,27.641,79.535,27.4z M49.83,46.68  c-3.998,0-8.374-1.999-10.534-7.52C38.974,38.281,39,36.52,39,36.359v-2.48c0-7.038,5.976-10.239,11.175-10.239  c6.4,0,11.351,5.121,11.351,11.521C61.525,41.561,56.23,46.68,49.83,46.68z"
   style="fill:#eeeedd;fill-opacity:1" />
</svg>
