<?xml version="1.0" encoding="UTF-8" standalone="no"?>
<!-- Uploaded to: SVG Repo, www.svgrepo.com, Generator: SVG Repo Mixer Tools -->

<svg
   fill="#000000"
   height="800px"
   width="800px"
   version="1.1"
   id="Capa_1"
   viewBox="0 0 47.032 47.032"
   xml:space="preserve"
   sodipodi:docname="gara.svg"
   inkscape:version="1.2.2 (b0a8486541, 2022-12-01)"
   xmlns:inkscape="http://www.inkscape.org/namespaces/inkscape"
   xmlns:sodipodi="http://sodipodi.sourceforge.net/DTD/sodipodi-0.dtd"
   xmlns="http://www.w3.org/2000/svg"
   xmlns:svg="http://www.w3.org/2000/svg"><defs
   id="defs1851" /><sodipodi:namedview
   id="namedview1849"
   pagecolor="#ffffff"
   bordercolor="#000000"
   borderopacity="0.25"
   inkscape:showpageshadow="2"
   inkscape:pageopacity="0.0"
   inkscape:pagecheckerboard="0"
   inkscape:deskcolor="#d1d1d1"
   showgrid="false"
   inkscape:zoom="0.69875"
   inkscape:cx="183.18426"
   inkscape:cy="401.43113"
   inkscape:window-width="1334"
   inkscape:window-height="744"
   inkscape:window-x="26"
   inkscape:window-y="0"
   inkscape:window-maximized="1"
   inkscape:current-layer="Capa_1" />
<g
   id="g1846"
   style="fill:#eeeedd;fill-opacity:1">
	<path
   d="M29.395,0H17.636c-3.117,0-5.643,3.467-5.643,6.584v34.804c0,3.116,2.526,5.644,5.643,5.644h11.759   c3.116,0,5.644-2.527,5.644-5.644V6.584C35.037,3.467,32.511,0,29.395,0z M34.05,14.188v11.665l-2.729,0.351v-4.806L34.05,14.188z    M32.618,10.773c-1.016,3.9-2.219,8.51-2.219,8.51H16.631l-2.222-8.51C14.41,10.773,23.293,7.755,32.618,10.773z M15.741,21.713   v4.492l-2.73-0.349V14.502L15.741,21.713z M13.011,37.938V27.579l2.73,0.343v8.196L13.011,37.938z M14.568,40.882l2.218-3.336   h13.771l2.219,3.336H14.568z M31.321,35.805v-7.872l2.729-0.355v10.048L31.321,35.805z"
   id="path1814"
   style="fill:#eeeedd;fill-opacity:1" />
	<g
   id="g1816"
   style="fill:#eeeedd;fill-opacity:1">
	</g>
	<g
   id="g1818"
   style="fill:#eeeedd;fill-opacity:1">
	</g>
	<g
   id="g1820"
   style="fill:#eeeedd;fill-opacity:1">
	</g>
	<g
   id="g1822"
   style="fill:#eeeedd;fill-opacity:1">
	</g>
	<g
   id="g1824"
   style="fill:#eeeedd;fill-opacity:1">
	</g>
	<g
   id="g1826"
   style="fill:#eeeedd;fill-opacity:1">
	</g>
	<g
   id="g1828"
   style="fill:#eeeedd;fill-opacity:1">
	</g>
	<g
   id="g1830"
   style="fill:#eeeedd;fill-opacity:1">
	</g>
	<g
   id="g1832"
   style="fill:#eeeedd;fill-opacity:1">
	</g>
	<g
   id="g1834"
   style="fill:#eeeedd;fill-opacity:1">
	</g>
	<g
   id="g1836"
   style="fill:#eeeedd;fill-opacity:1">
	</g>
	<g
   id="g1838"
   style="fill:#eeeedd;fill-opacity:1">
	</g>
	<g
   id="g1840"
   style="fill:#eeeedd;fill-opacity:1">
	</g>
	<g
   id="g1842"
   style="fill:#eeeedd;fill-opacity:1">
	</g>
	<g
   id="g1844"
   style="fill:#eeeedd;fill-opacity:1">
	</g>
</g>
</svg>
