<?xml version="1.0" encoding="UTF-8" standalone="no"?>
<!-- Generator: Adobe Illustrator 23.0.1, SVG Export Plug-In . SVG Version: 6.00 Build 0)  -->

<svg
   version="1.1"
   x="0px"
   y="0px"
   viewBox="0 0 52.310001 59.563"
   xml:space="preserve"
   id="svg12338"
   width="52.310001"
   height="59.563"
   xmlns="http://www.w3.org/2000/svg"
   xmlns:svg="http://www.w3.org/2000/svg"><defs
   id="defs12342" />
<style
   type="text/css"
   id="style12284">
	.st0{fill:none;stroke:#000000;stroke-width:0.5;stroke-linecap:round;stroke-linejoin:round;}
	.st1{font-family:'Roboto-Regular';}
	.st2{font-size:14px;}
</style>
<path
   class="st0"
   d="M 0,9.274 0.012,9.23 0.574,8.649 1.236,8.112 1.77,7.409 1.879,7.169 2.011,6.443 2.187,6.297 2.434,6.407 2.685,6.584 2.874,6.642 2.978,6.501 3.249,5.936 3.528,5.495 3.975,4.408 4.21,4.186 4.22,4.085 4.185,3.993 4.193,3.879 4.314,3.67 4.464,3.529 4.66,3.438 5.389,3.238 5.705,2.999 5.916,2.619 6.395,0.508 l 0.167,0.025 3.332,0.269 0.826,-0.23 0.242,-0.123 0.119,-0.035 0.868,-0.111 0.314,-0.077 0.128,-0.004 0.105,0.014 0.079,0.028 0.271,0.162 0.107,0.041 0.187,0.043 0.113,0.004 0.094,-0.009 0.19,-0.081 0.057,-0.035 0.103,-0.09 0.092,-0.103 0.149,-0.112 0.144,-0.056 0.125,-0.028 0.566,0.06 0.133,0.042 0.09,0.05 0.036,0.056 0.027,0.064 0.016,0.069 0.007,0.078 10e-4,0.08 -0.022,0.174 -0.201,0.663 -0.018,0.089 -0.014,0.17 0.007,0.157 0.031,0.142 0.027,0.063 0.13,0.239 0.022,0.063 0.013,0.075 -0.004,0.082 -0.014,0.088 -0.174,0.707 -0.022,0.181 0.004,0.08 0.012,0.072 0.038,0.109 0.008,0.019 0.023,0.024 0.163,0.119 0.095,0.032 0.091,0.014 0.154,-0.014 0.224,0.004 0.199,0.027 0.115,0.033 0.089,0.039 0.118,0.082 0.108,0.092 0.175,0.207 0.13,0.236 0.116,0.151 0.128,0.11 0.1,0.053 0.099,0.032 0.086,0.009 0.386,-0.037 0.319,0.052 0.536,0.159 0.121,0.055 0.063,0.038 0.1,0.095 0.124,0.162 0.034,0.058 0.136,0.158 0.161,0.121 0.113,0.047 0.095,0.012 0.141,-0.033 0.254,-0.104 0.235,-0.135 0.194,-0.076 0.071,-0.012 h 0.191 l 0.128,-0.017 0.194,-0.104 0.096,-0.033 0.168,-0.011 0.125,0.037 0.079,0.052 0.032,0.068 0.001,0.082 -0.039,0.272 -0.001,0.082 0.05,0.211 0.039,0.546 0.134,0.481 0.028,0.063 0.578,0.835 0.18,0.206 0.078,0.111 0.029,0.059 0.021,0.069 0.036,0.222 0.054,0.134 0.107,0.166 0.189,-0.03 0.311,-0.282 0.202,-0.093 0.773,-0.199 5.463,0.267 0.898,-0.028 0.924,-0.154 0.165,-0.053 0.109,-0.08 0.098,-0.096 0.212,-0.255 0.054,-0.086 0.028,-0.068 0.035,-0.067 0.036,-0.056 0.042,-0.039 0.074,-0.053 0.147,-0.068 0.275,-0.162 0.396,-0.004 2.42,0.883 2.401,1.028 0.419,0.556 0.393,0.33 0.107,0.178 0.089,0.12 0.046,0.077 0.033,0.068 0.119,0.476 0.152,1.134 0.114,0.238 0.434,0.622 0.402,0.392 0.223,0.17 0.068,0.041 0.264,0.122 0.173,0.121 0.025,0.07 0.023,0.117 -0.016,0.09 -0.029,0.08 -0.233,0.38 -0.106,0.127 -0.064,0.097 -0.092,0.178 -0.022,0.107 0.005,0.09 0.024,0.068 0.181,0.265 0.11,0.112 0.233,0.169 2.076,0.974 0.54,0.377 1.491,1.548 0.262,0.126 0.111,0.075 2.189,2.187 0.39,0.699 0.066,0.214 0.025,0.15 0.012,0.661 -0.014,0.256 0.007,0.183 0.149,0.874 0.139,0.521 0.776,1.883 0.751,1.644 0.449,1.296 2.054,4.225 -1.019,2.958 -0.186,0.416 -0.261,0.402 -0.065,0.153 -0.16,0.58 -0.31,0.99 -0.086,0.416 -0.024,0.227 -1.002,3.024 -0.25,0.708 -0.16,0.47 -0.806,2.442 -0.166,0.882 0.018,2.51 0.034,5.035 0.042,3.843 -1.231,0.225 -0.586,-0.004 -0.198,-0.031 -0.101,-0.038 -0.083,-0.041 -0.184,-0.128 -0.07,-0.037 -0.126,-0.046 -0.581,-0.107 -0.466,0.004 -0.616,0.156 -0.273,0.107 -0.498,0.29 -0.615,0.23 -0.631,0.067 -0.6,-0.062 -0.162,0.015 -0.398,0.097 -0.137,0.004 -0.108,-0.02 -0.328,-0.174 -0.178,-0.064 -0.114,-0.016 -0.097,0.002 -0.646,0.082 -0.072,-0.005 -0.026,-0.012 -0.246,-0.174 -0.135,-0.061 -0.097,-0.012 -0.083,0.012 -0.26,0.123 -0.201,0.049 -0.117,-0.005 -0.093,-0.019 -0.125,-0.062 -0.34,-0.209 -0.277,-0.094 -0.845,-0.172 -0.317,-0.887 -0.318,-0.592 -0.122,-0.111 -0.1,-0.048 -0.077,0.012 -0.089,-0.005 -0.1,-0.04 -0.129,-0.108 -0.054,-0.09 -0.027,-0.091 -0.01,-0.422 -0.144,-0.6 L 34.471,55.665 34.47,55.432 34.44,55.248 34.374,55.169 34.293,55.132 33.563,55.05 33.401,54.993 33.329,54.958 33.206,54.871 32.204,53.867 32.107,53.733 32.048,53.624 32.028,53.467 32.02,52.7 31.929,52.397 31.499,51.543 31.372,51.186 31.913,47.267 31.239,46.645 31.194,46.224 31.658,44.736 31.646,44.62 31.623,44.537 31.389,44.19 31.194,43.817 31.031,43.592 30.89,43.351 30.41,42.169 30.285,41.994 30.178,41.893 30.114,41.85 29.587,41.623 29.502,41.548 29.41,41.441 29.096,40.947 29.011,40.837 28.432,39.889 28.23,39.689 28.118,39.598 27.859,39.437 27.353,38.985 27.19,38.806 27.111,38.689 26.797,38.077 26.723,37.974 26.651,37.9 25.842,37.388 25.748,37.298 25.687,37.216 25.66,37.149 25.617,37.005 25.497,36.415 25.33,36.07 24.945,35.461 24.847,35.337 23.138,33.986 23.003,33.822 22.686,33.313 22.599,33.218 22.518,33.15 21.91,32.897 21.745,32.796 21.413,32.532 21.238,32.354 20.913,31.838 20.823,31.743 20.74,31.677 20.301,31.407 20.217,31.326 20.162,31.249 20.06,30.977 20.003,30.773 19.409,30.147 19.138,29.945 18.581,29.776 18.493,29.725 18.429,29.67 18.397,29.608 18.37,29.543 l -0.039,-0.14 -0.079,-0.188 -0.094,-0.151 -0.155,-0.139 -0.723,-0.474 -0.482,-0.342 -0.19,-0.19 -0.292,-0.469 -0.092,-0.075 -0.095,-0.042 -0.357,-0.044 -1.532,-0.517 -0.375,-0.029 -0.16,0.008 -0.293,0.053 -0.178,0.013 -0.124,-0.006 -0.201,-0.031 -0.116,-0.034 -0.09,-0.041 -0.709,-0.462 -0.145,-0.052 -0.116,-0.023 -0.308,0.036 -0.353,0.089 -0.642,0.274 -0.09,0.024 -0.113,0.015 -0.19,0.003 L 9.892,26.578 9.542,26.438 9.418,26.41 9.318,26.407 8.614,26.629 8.325,26.652 7.892,26.456 7.839,26.391 7.78,26.305 7.755,26.155 7.73,25.754 7.811,25.041 7.858,24.867 7.884,24.793 8.048,24.515 8.225,24.284 8.267,24.199 8.305,24.061 8.295,23.932 8.225,23.547 8.31,22.695 8.354,22.506 8.412,22.395 8.475,22.364 8.546,22.347 8.618,22.308 8.686,22.253 8.754,22.136 8.764,22.051 8.75,21.976 8.712,21.918 8.669,21.864 8.556,21.642 8.454,21.383 8.235,21.174 8.048,20.961 7.989,20.432 8,19.789 8.065,19.333 8.374,18.785 8.485,18.661 8.612,18.566 8.747,18.528 8.91,18.46 9.039,18.365 9.153,18.14 9.178,17.993 9.174,17.873 9.115,17.703 9.078,17.624 9.02,17.527 8.934,17.414 8.804,17.29 8.497,17.048 8.371,16.911 8.283,16.759 8.082,16.245 7.961,15.791 7.8,15.524 7.611,15.293 6.782,14.551 6.652,14.16 6.543,13.615 6.403,13.181 6.23,12.871 6.059,12.358 5.71,11.975 3.912,10.445 3.804,10.386 3.697,10.348 3.087,10.407 2.985,10.383 2.872,10.342 2.722,10.247 2.644,10.175 2.593,10.103 2.389,9.757 2.309,9.675 2.226,9.629 H 2.151 L 2.014,9.665 1.893,9.718 1.687,9.786 1.536,9.801 1.366,9.784 1.265,9.751 1.163,9.696 0.922,9.536 0.828,9.494 Z"
   id="path12302"
   style="fill:#eeeedd;fill-opacity:1;stroke:none" />

</svg>
