<?xml version="1.0" encoding="UTF-8" standalone="no"?>
<!-- Uploaded to: SVG Repo, www.svgrepo.com, Generator: SVG Repo Mixer Tools -->

<svg
   fill="#000000"
   height="800px"
   width="800px"
   version="1.1"
   id="Capa_1"
   viewBox="0 0 489.7 489.7"
   xml:space="preserve"
   sodipodi:docname="notepad-svgrepo-com.svg"
   inkscape:version="1.2.2 (b0a8486541, 2022-12-01)"
   xmlns:inkscape="http://www.inkscape.org/namespaces/inkscape"
   xmlns:sodipodi="http://sodipodi.sourceforge.net/DTD/sodipodi-0.dtd"
   xmlns="http://www.w3.org/2000/svg"
   xmlns:svg="http://www.w3.org/2000/svg"><defs
   id="defs815" /><sodipodi:namedview
   id="namedview813"
   pagecolor="#ffffff"
   bordercolor="#000000"
   borderopacity="0.25"
   inkscape:showpageshadow="2"
   inkscape:pageopacity="0.0"
   inkscape:pagecheckerboard="0"
   inkscape:deskcolor="#d1d1d1"
   showgrid="false"
   inkscape:zoom="0.69875"
   inkscape:cx="183.18426"
   inkscape:cy="401.43113"
   inkscape:window-width="1334"
   inkscape:window-height="744"
   inkscape:window-x="26"
   inkscape:window-y="0"
   inkscape:window-maximized="1"
   inkscape:current-layer="Capa_1" />
<g
   id="g810"
   style="fill:#eeeedd;fill-opacity:1">
	<g
   id="g808"
   style="fill:#eeeedd;fill-opacity:1">
		<path
   d="M181.1,113.9h127.3c14.1,0,25.5-11.4,25.6-25.5l0,0c0.1-14.2-11.4-25.8-25.6-25.8H181.1c-14.2,0-25.6,11.5-25.6,25.6l0,0    C155.4,102.5,166.9,113.9,181.1,113.9z"
   id="path790"
   style="fill:#eeeedd;fill-opacity:1" />
		<path
   d="M353.6,91c0,0.8,0,1.6-0.4,2.3c-2.7,22.9-22.2,40-45.1,40h-127c-22.9,0-42.4-17.1-45.1-40c0-0.8,0-1.6,0-2.3H93.3v398.7    h303.1V91H353.6z M130.5,453.6V167.2h228.1v286.4H130.5z"
   id="path792"
   style="fill:#eeeedd;fill-opacity:1" />
		<path
   d="M201.7,218.5l-20.6,22.2l-3.9-4.3c-3.9-3.9-10.1-4.3-14-0.4c-3.9,3.9-4.3,10.1-0.4,14l10.2,11.6c4,4.6,11.1,4.7,15.2,0.2    l27.8-29.7c3.9-3.9,3.5-10.1-0.4-14C211.8,214.2,205.6,214.6,201.7,218.5z"
   id="path794"
   style="fill:#eeeedd;fill-opacity:1" />
		<path
   d="M201.7,288.8L181.1,311l-3.9-4.3c-3.9-3.9-10.1-4.3-14-0.4s-4.3,10.1-0.4,14l10.2,11.6c4,4.6,11.1,4.7,15.2,0.2l27.8-29.7    c3.9-3.9,3.5-10.1-0.4-14C211.8,284.6,205.6,285,201.7,288.8z"
   id="path796"
   style="fill:#eeeedd;fill-opacity:1" />
		<path
   d="M201.7,359.2l-20.6,22.2l-3.9-4.3c-3.9-3.9-10.1-4.3-14-0.4s-4.3,10.1-0.4,14l10.2,11.6c4,4.6,11.1,4.7,15.2,0.2    l27.8-29.7c3.9-3.9,3.5-10.1-0.4-14C211.8,354.9,205.6,355.3,201.7,359.2z"
   id="path798"
   style="fill:#eeeedd;fill-opacity:1" />
		<path
   d="M322.5,241h-90.2c-5.4,0-9.7,4.3-9.7,9.7c-0.4,5.4,4.3,9.7,9.7,9.7h90.2c5.4,0,9.7-4.3,9.7-9.7S328,241,322.5,241z"
   id="path800"
   style="fill:#eeeedd;fill-opacity:1" />
		<path
   d="M322.5,311.4h-90.2c-5.4,0-9.7,4.3-9.7,9.7c-0.4,5.4,4.3,9.7,9.7,9.7h90.2c5.4,0,9.7-4.3,9.7-9.7S328,311.4,322.5,311.4z"
   id="path802"
   style="fill:#eeeedd;fill-opacity:1" />
		<path
   d="M322.5,381.7h-90.2c-5.4,0-9.7,4.3-9.7,9.7c-0.4,5.4,4.3,9.7,9.7,9.7h90.2c5.4,0,9.7-4.3,9.7-9.7S328,381.7,322.5,381.7z"
   id="path804"
   style="fill:#eeeedd;fill-opacity:1" />
		<path
   d="M273.6,42.4c1.6-3.5,2.3-7.4,2.3-11.3c0-17.1-14-31.1-31.1-31.1s-31.1,14-31.1,31.1c0,3.9,0.8,7.8,2.3,11.3H273.6z"
   id="path806"
   style="fill:#eeeedd;fill-opacity:1" />
	</g>
</g>
</svg>
