<?xml version="1.0" encoding="UTF-8" standalone="no"?>
<!-- Created with Inkscape (http://www.inkscape.org/) -->

<svg
   xml:space="preserve"
   inkscape:version="1.2.2 (b0a8486541, 2022-12-01)"
   sodipodi:docname="logo-v.svg"
   viewBox="0 0 221.61523 201.92163"
   height="201.92163"
   width="221.61523"
   id="svg148"
   version="1.1"
   xmlns:inkscape="http://www.inkscape.org/namespaces/inkscape"
   xmlns:sodipodi="http://sodipodi.sourceforge.net/DTD/sodipodi-0.dtd"
   xmlns="http://www.w3.org/2000/svg"
   xmlns:svg="http://www.w3.org/2000/svg"><defs
     id="defs152" /><sodipodi:namedview
     id="namedview150"
     pagecolor="#ffffff"
     bordercolor="#999999"
     borderopacity="1"
     inkscape:showpageshadow="0"
     inkscape:pageopacity="0"
     inkscape:pagecheckerboard="0"
     inkscape:deskcolor="#d1d1d1"
     showgrid="false"
     inkscape:zoom="1.8101934"
     inkscape:cx="108.82815"
     inkscape:cy="105.23738"
     inkscape:window-width="1334"
     inkscape:window-height="744"
     inkscape:window-x="26"
     inkscape:window-y="0"
     inkscape:window-maximized="1"
     inkscape:current-layer="g156"
     showguides="true"
     inkscape:lockguides="false"><inkscape:grid
       type="xygrid"
       id="grid962"
       originx="0"
       originy="0" /></sodipodi:namedview><g
     id="g156"
     inkscape:groupmode="layer"
     inkscape:label="Page 1"
     transform="matrix(1.3333333,0,0,-1.3333333,1481.9961,-454.54137)"><path
       id="path80893"
       style="fill:#eeeedd;fill-opacity:1;stroke-width:0.850397;paint-order:fill markers stroke;stop-color:#000000"
       d="m -1028.4595,-340.90604 c 30.4355,0 55.1773,-24.02648 57.268,-54.65332 l -8.5239,-1.78418 -0.1274,4.18359 -2.4287,2.21777 -15.7486,-0.50976 -1.6728,-1.62012 -0.2505,-8.50488 -11.2632,-2.35693 c -7.5016,4.06799 -16.1009,6.99198 -24.2285,8.84912 l -0.5581,14.68652 c -2.8194,0.358 -4.9367,0.59249 -7.125,0.81152 -2.9939,4.86068 -11.7546,7.06415 -16.3462,7.0459 -0.1697,-6.7e-4 -0.333,-0.005 -0.4907,-0.0117 -4.5896,-0.19538 -6.6542,-0.41726 -10.7857,-0.94189 l -0.3413,-8.96045 c -5.8136,-2.51434 -10.8184,-6.3794 -11.8682,-11.73926 l -0.7412,-0.37646 c -0.638,-0.0687 -1.3322,-0.15232 -1.9804,-0.22412 2.4468,30.26118 27.0305,53.88867 57.2124,53.88867 z" /><g
       id="g5437"
       transform="matrix(-1,0,0,1,-2056.7828,0)"
       style="fill:#112222;fill-opacity:1"><path
         id="rect5046"
         style="vector-effect:non-scaling-stroke;fill:#112222;stroke-width:0.75;stroke-linecap:square;stroke-linejoin:bevel;-inkscape-stroke:hairline;paint-order:stroke fill markers;fill-opacity:1"
         d="m -997.31838,372.54081 c -4.59162,-0.0183 -13.35232,2.18522 -16.34622,7.0459 -2.1883,0.21903 -4.3056,0.45352 -7.125,0.81152 l -0.5581,14.68652 c -8.1276,1.85714 -16.7269,4.78113 -24.2285,8.84912 l -11.2632,-2.35693 -0.2505,-8.50488 -1.6728,-1.62012 -15.7486,-0.50976 -2.4287,2.21777 -0.1274,4.18359 -19.5864,-4.09863 -0.2813,14.63818 c -4.8182,0.35384 -9.695,0.77542 -14.562,1.18506 v 83.2791 h 166.21143 v -67.42363 l -2.57959,-0.54053 -0.57422,-14.75976 c -3.46103,-0.45707 -6.95763,-0.87076 -10.47802,-1.25537 l -0.46143,-12.17871 c -5.2621,-0.6682 -9.56441,-1.17187 -13.7124,-1.61866 l -0.74121,-0.37646 c -1.04977,-5.35986 -6.05459,-9.22492 -11.86817,-11.73926 l -0.34131,-8.96045 c -4.13149,-0.52463 -6.19605,-0.74651 -10.78564,-0.94189 -0.15778,-0.007 -0.32106,-0.0111 -0.49072,-0.0117 z"
         sodipodi:nodetypes="sccccccccccccccccccccccccss"
         transform="scale(1,-1)" /><g
         id="g5379"
         style="fill:#eeeedd;fill-opacity:1"><g
           id="g4887"
           style="fill:#eeeedd;fill-opacity:1"><path
             style="fill:#eeeedd;fill-opacity:1;stroke-width:0.850406;paint-order:fill markers stroke;stop-color:#000000"
             d="m -995.8533,-375.12495 -0.0255,2.51593 c -0.3162,0.0191 -0.6324,0.0391 -0.94839,0.0565 l 0.0192,-2.51546 c 0.31808,-0.0176 0.63637,-0.0377 0.95466,-0.057 z"
             id="path80897" /><path
             style="fill:#eeeedd;fill-opacity:1;stroke-width:0.850406;paint-order:fill markers stroke;stop-color:#000000"
             d="m -994.59075,-375.20308 -0.0338,2.5166 c -0.29957,0.0202 -0.5985,0.0369 -0.89785,0.0556 l 0.0278,-2.51611 c 0.30133,-0.0188 0.60223,-0.0357 0.90378,-0.0561 z"
             id="path80899" /><path
             style="fill:#eeeedd;fill-opacity:1;stroke-width:0.850406;paint-order:fill markers stroke;stop-color:#000000"
             d="m -993.39583,-375.29098 -0.0416,2.51766 c -0.27903,0.0207 -0.55823,0.0417 -0.83705,0.0611 l 0.0361,-2.51685 c 0.28067,-0.0196 0.56172,-0.0409 0.84259,-0.0619 z"
             id="path80901" /><path
             style="fill:#eeeedd;fill-opacity:1;stroke-width:0.850406;paint-order:fill markers stroke;stop-color:#000000"
             d="m -992.29965,-375.37482 -0.0488,2.51846 c -0.25957,0.021 -0.51895,0.0402 -0.77831,0.06 l 0.0437,-2.51763 c 0.26108,-0.02 0.52218,-0.0396 0.78346,-0.0608 z"
             id="path80903" /><path
             style="fill:#eeeedd;fill-opacity:1;stroke-width:0.850406;paint-order:fill markers stroke;stop-color:#000000"
             d="m -991.27765,-375.46279 -0.0555,2.51907 c -0.2411,0.021 -0.48189,0.0421 -0.72267,0.062 l 0.0508,-2.51846 c 0.24238,-0.0202 0.48488,-0.0414 0.72746,-0.0627 z"
             id="path80905" /><path
             style="fill:#eeeedd;fill-opacity:1;stroke-width:0.850406;paint-order:fill markers stroke;stop-color:#000000"
             d="m -990.31818,-375.54802 -0.0619,2.51992 c -0.22488,0.021 -0.44932,0.0407 -0.67393,0.0607 l 0.0574,-2.51956 c 0.22606,-0.0202 0.4521,-0.0398 0.67839,-0.061 z"
             id="path80907" /><path
             style="fill:#eeeedd;fill-opacity:1;stroke-width:0.850406;paint-order:fill markers stroke;stop-color:#000000"
             d="m -989.44477,-375.63463 -0.0676,2.52082 c -0.20329,0.0201 -0.40653,0.0411 -0.60958,0.0604 l 0.0636,-2.52044 c 0.20432,-0.0195 0.40908,-0.0405 0.61361,-0.0608 z"
             id="path80909" /><path
             style="fill:#eeeedd;fill-opacity:1;stroke-width:0.850406;paint-order:fill markers stroke;stop-color:#000000"
             d="m -988.62875,-375.71523 -0.073,2.52164 c -0.18474,0.0193 -0.36912,0.036 -0.55375,0.0546 l 0.0693,-2.52108 c 0.18592,-0.0188 0.37145,-0.0357 0.55742,-0.0552 z"
             id="path80911" /><path
             style="fill:#eeeedd;stroke-width:0.850406;paint-order:fill markers stroke;stop-color:#000000;fill-opacity:1"
             d="m -987.85386,-375.79829 -0.0781,2.52276 c -0.16695,0.0183 -0.33415,0.0366 -0.50109,0.0543 l 0.0747,-2.52193 c 0.16801,-0.0179 0.33626,-0.0366 0.50442,-0.0551 z"
             id="path80913" /><path
             style="fill:#eeeedd;stroke-width:0.850406;paint-order:fill markers stroke;stop-color:#000000;fill-opacity:1"
             d="m -987.10446,-375.88253 -0.083,2.5234 c -0.15016,0.0172 -0.30007,0.0349 -0.45005,0.0516 l 0.08,-2.5231 c 0.15087,-0.0169 0.30197,-0.0346 0.45303,-0.0519 z"
             id="path80915" /><path
             style="fill:#eeeedd;stroke-width:0.850406;paint-order:fill markers stroke;stop-color:#000000;fill-opacity:1"
             d="m -986.61197,-375.93965 -0.0862,2.52427 c -0.0751,0.009 -0.15044,0.0171 -0.22554,0.0258 l 0.0847,-2.52373 c 0.0756,-0.009 0.15144,-0.0174 0.22705,-0.0264 z"
             id="path80917" /><path
             style="fill:#eeeedd;stroke-width:0.850406;paint-order:fill markers stroke;stop-color:#000000;fill-opacity:1"
             d="m -986.18536,-375.99094 -0.089,2.52457 c -0.066,0.008 -0.13208,0.0163 -0.1983,0.0242 l 0.0877,-2.52431 c 0.0664,-0.008 0.13294,-0.0164 0.1996,-0.0244 z"
             id="path80919" /><path
             style="fill:#eeeedd;stroke-width:0.850406;paint-order:fill markers stroke;stop-color:#000000;fill-opacity:1"
             d="m -985.95081,-376.01984 -0.0906,2.52516 c -0.0319,0.004 -0.0641,0.008 -0.0961,0.012 l 0.09,-2.52499 c 0.0321,-0.004 0.0646,-0.008 0.0968,-0.0121 z"
             id="path80921" /><path
             style="fill:#eeeedd;fill-opacity:1;stroke-width:0.850404;paint-order:fill markers stroke;stop-color:#000000"
             d="m -1004.6431,-383.08147 0.042,4.14041 c 0.5203,0.0315 1.0407,0.0643 1.5607,0.093 l -0.032,-4.13963 c -0.5235,-0.029 -1.0473,-0.0621 -1.5711,-0.0938 z"
             id="path80955" /><path
             style="fill:#eeeedd;fill-opacity:1;stroke-width:0.850404;paint-order:fill markers stroke;stop-color:#000000"
             d="m -1006.7209,-383.21004 0.056,4.14151 c 0.493,0.0333 0.9849,0.0607 1.4776,0.0915 l -0.046,-4.14072 c -0.4959,-0.031 -0.9911,-0.0587 -1.4874,-0.0923 z"
             id="path80957" /><path
             style="fill:#eeeedd;fill-opacity:1;stroke-width:0.850404;paint-order:fill markers stroke;stop-color:#000000"
             d="m -1008.6873,-383.3547 0.069,4.14326 c 0.4592,0.0341 0.9186,0.0686 1.3775,0.10052 l -0.059,-4.14192 c -0.4619,-0.0322 -0.9244,-0.0673 -1.3866,-0.10182 z"
             id="path80959" /><path
             style="fill:#eeeedd;fill-opacity:1;stroke-width:0.850404;paint-order:fill markers stroke;stop-color:#000000"
             d="m -1010.4913,-383.49267 0.08,4.14457 c 0.4271,0.0346 0.854,0.0662 1.2808,0.0988 l -0.072,-4.14321 c -0.4297,-0.0329 -0.8594,-0.0652 -1.2894,-0.1001 z"
             id="path80961" /><path
             style="fill:#eeeedd;fill-opacity:1;stroke-width:0.850404;paint-order:fill markers stroke;stop-color:#000000"
             d="m -1012.1731,-383.63744 0.091,4.14558 c 0.3968,0.0346 0.7931,0.0693 1.1893,0.10207 l -0.083,-4.14457 c -0.3989,-0.0332 -0.7979,-0.0682 -1.1971,-0.10309 z"
             id="path80963" /><path
             style="fill:#eeeedd;fill-opacity:1;stroke-width:0.850404;paint-order:fill markers stroke;stop-color:#000000"
             d="m -1013.7521,-383.7777 0.1018,4.14698 c 0.37,0.0346 0.7394,0.067 1.109,0.0999 l -0.094,-4.14638 c -0.372,-0.0333 -0.744,-0.0656 -1.1164,-0.10045 z"
             id="path80965" /><path
             style="fill:#eeeedd;fill-opacity:1;stroke-width:0.850404;paint-order:fill markers stroke;stop-color:#000000"
             d="m -1015.1895,-383.92022 0.1112,4.14844 c 0.3346,0.0331 0.6691,0.0676 1.0032,0.0994 l -0.1046,-4.14782 c -0.3362,-0.0321 -0.6732,-0.0666 -1.0098,-0.10003 z"
             id="path80967" /><path
             style="fill:#eeeedd;fill-opacity:1;stroke-width:0.850404;paint-order:fill markers stroke;stop-color:#000000"
             d="m -1016.5324,-384.05287 0.1201,4.1498 c 0.304,0.0317 0.6074,0.0593 0.9113,0.0898 l -0.114,-4.14888 c -0.306,-0.031 -0.6113,-0.0587 -0.9174,-0.0908 z"
             id="path80969" /><path
             style="fill:#eeeedd;fill-opacity:1;stroke-width:0.850404;paint-order:fill markers stroke;stop-color:#000000"
             d="m -1017.8076,-384.18957 0.1285,4.15165 c 0.2747,0.03 0.5499,0.0602 0.8246,0.0893 l -0.123,-4.15029 c -0.2765,-0.0294 -0.5534,-0.0603 -0.8301,-0.0907 z"
             id="path80971" /><path
             style="fill:#eeeedd;fill-opacity:1;stroke-width:0.850404;paint-order:fill markers stroke;stop-color:#000000"
             d="m -1019.0409,-384.3282 0.1366,4.15271 c 0.2471,0.0283 0.4938,0.0574 0.7406,0.085 l -0.1316,-4.15221 c -0.2483,-0.0278 -0.497,-0.0568 -0.7456,-0.0854 z"
             id="path80973" /><path
             style="fill:#eeeedd;fill-opacity:1;stroke-width:0.850404;paint-order:fill markers stroke;stop-color:#000000"
             d="m -1019.8514,-384.42219 0.142,4.15412 c 0.1236,0.0145 0.2475,0.0282 0.3711,0.0425 l -0.1394,-4.15325 c -0.1244,-0.0146 -0.2492,-0.0287 -0.3737,-0.0434 z"
             id="path80975" /><path
             style="fill:#eeeedd;fill-opacity:1;stroke-width:0.850404;paint-order:fill markers stroke;stop-color:#000000"
             d="m -1020.5534,-384.5066 0.1465,4.15463 c 0.1087,0.0131 0.2174,0.0268 0.3264,0.0398 l -0.1444,-4.15419 c -0.1094,-0.0131 -0.2188,-0.0269 -0.3285,-0.0402 z"
             id="path80977" /><path
             style="fill:#eeeedd;fill-opacity:1;stroke-width:0.850404;paint-order:fill markers stroke;stop-color:#000000"
             d="m -1020.9394,-384.55417 0.1491,4.1556 c 0.053,0.007 0.1055,0.0133 0.1582,0.0197 l -0.148,-4.15532 c -0.053,-0.007 -0.1063,-0.0134 -0.1593,-0.02 z"
             id="path80979" /></g><g
           id="g4859"
           style="fill:#eeeedd;fill-opacity:1"><path
             id="path81039"
             style="fill:#eeeedd;fill-opacity:1;stroke-width:0.850405;paint-order:fill markers stroke;stop-color:#000000"
             d="m -999.70169,-402.42802 0.0234,-3.0498 c 1.19678,-0.0431 2.39161,-0.0896 3.58301,-0.13916 l -0.0308,2.9751 c -1.19239,0.072 -2.384,0.14807 -3.57569,0.21386 z" /><path
             id="path81041"
             style="fill:#eeeedd;fill-opacity:1;stroke-width:0.850405;paint-order:fill markers stroke;stop-color:#000000"
             d="m -994.78127,-402.72538 0.0322,-2.94873 c 1.13325,-0.0495 2.26429,-0.10122 3.39258,-0.15674 l -0.0396,2.896 c -1.12967,0.0764 -2.25636,0.13882 -3.38525,0.20947 z" /><path
             id="path81043"
             style="fill:#eeeedd;stroke-width:0.850405;paint-order:fill markers stroke;stop-color:#000000;fill-opacity:1"
             d="m -990.0762,-403.033 0.041,-2.86377 c 1.05679,-0.0543 2.11023,-0.11175 3.1626,-0.17138 l -0.0469,2.80517 c -1.05232,0.0784 -2.10524,0.15659 -3.15674,0.22998 z" /><path
             id="path81045"
             style="fill:#eeeedd;stroke-width:0.850405;paint-order:fill markers stroke;stop-color:#000000;fill-opacity:1"
             d="m -985.74758,-403.35087 0.0483,-2.78466 c 0.98173,-0.0576 1.96212,-0.1164 2.93994,-0.17872 l -0.0527,2.73633 c -0.97886,0.0795 -1.95737,0.1521 -2.93554,0.22705 z" /><path
             id="path81047"
             style="fill:#eeeedd;stroke-width:0.850405;paint-order:fill markers stroke;stop-color:#000000;fill-opacity:1"
             d="m -981.70901,-403.67313 0.0542,-2.71436 c 0.91188,-0.0599 1.82204,-0.12198 2.73047,-0.18603 l -0.0586,2.66601 c -0.90919,0.0796 -1.81798,0.15908 -2.72608,0.23438 z" /><path
             id="path81049"
             style="fill:#eeeedd;stroke-width:0.850405;paint-order:fill markers stroke;stop-color:#000000;fill-opacity:1"
             d="m -977.93118,-403.99686 0.0601,-2.64991 c 0.85012,-0.0616 1.69885,-0.12516 2.5459,-0.19043 l -0.0645,2.61036 c -0.84803,0.0795 -1.6945,0.15426 -2.54151,0.22998 z" /><path
             id="path81051"
             style="fill:#eeeedd;stroke-width:0.850405;paint-order:fill markers stroke;stop-color:#000000;fill-opacity:1"
             d="m -974.41555,-404.32352 0.0659,-2.59131 c 0.76827,-0.0606 1.53555,-0.12236 2.30127,-0.18604 l -0.0688,2.54883 c -0.76659,0.076 -1.5325,0.15542 -2.29834,0.22852 z" /><path
             id="path81053"
             style="fill:#eeeedd;stroke-width:0.850405;paint-order:fill markers stroke;stop-color:#000000;fill-opacity:1"
             d="m -971.14749,-404.64725 0.0688,-2.53565 c 0.69853,-0.0594 1.39542,-0.11965 2.0918,-0.18164 l -0.0732,2.51074 c -0.6967,0.073 -1.39118,0.13626 -2.08741,0.20655 z" /><path
             id="path81055"
             style="fill:#eeeedd;stroke-width:0.850405;paint-order:fill markers stroke;stop-color:#000000;fill-opacity:1"
             d="m -968.04641,-404.9578 0.0747,-2.49756 c 0.63131,-0.0574 1.26158,-0.11617 1.89111,-0.17578 l -0.0762,2.4668 c -0.62955,0.0693 -1.26015,0.13943 -1.88965,0.20654 z" /><path
             id="path81057"
             style="fill:#eeeedd;stroke-width:0.850405;paint-order:fill markers stroke;stop-color:#000000;fill-opacity:1"
             d="m -965.04641,-405.28446 0.0776,-2.45361 c 0.56714,-0.055 1.13354,-0.11026 1.69921,-0.167 l -0.0791,2.42432 c -0.56626,0.0651 -1.13219,0.13291 -1.69775,0.19629 z" /><path
             id="path81059"
             style="fill:#eeeedd;stroke-width:0.850405;paint-order:fill markers stroke;stop-color:#000000;fill-opacity:1"
             d="m -962.35549,-405.59647 0.0806,-2.40967 c 0.28441,-0.0291 0.56851,-0.0583 0.85254,-0.0879 l -0.082,2.40088 c -0.28328,0.0335 -0.56781,0.0637 -0.85107,0.0967 z" /><path
             id="path81061"
             style="fill:#eeeedd;stroke-width:0.850405;paint-order:fill markers stroke;stop-color:#000000;fill-opacity:1"
             d="m -960.65334,-405.79569 0.0835,-2.40527 c 0.24858,-0.0263 0.50024,-0.0495 0.74854,-0.0762 l -0.085,2.39063 c -0.2485,0.0301 -0.49726,0.061 -0.74707,0.0908 z" /><path
             id="path81063"
             style="fill:#eeeedd;stroke-width:0.850405;paint-order:fill markers stroke;stop-color:#000000;fill-opacity:1"
             d="m -959.39065,-405.9495 0.085,-2.37012 c 0.12107,-0.0131 0.24229,-0.0263 0.36328,-0.0396 l -0.085,2.36426 c -0.12028,0.0153 -0.24258,0.0306 -0.36328,0.0454 z" /><path
             id="path81071"
             style="fill:#eeeedd;fill-opacity:1;stroke-width:0.850407;paint-order:fill markers stroke;stop-color:#000000"
             d="m -1016.294,-409.17216 0.01,-0.89209 5.5854,-1.16894 -0.021,1.91308 c -1.8579,0.0514 -3.7157,0.11206 -5.5723,0.14795 z" /><path
             id="path81073"
             style="fill:#eeeedd;fill-opacity:1;stroke-width:0.850407;paint-order:fill markers stroke;stop-color:#000000"
             d="m -1008.627,-409.38016 0.026,-2.29248 5.2925,-1.10743 -0.044,3.2417 c -1.7604,0.0682 -3.5159,0.10394 -5.2749,0.15821 z" /><path
             id="path81075"
             style="fill:#eeeedd;fill-opacity:1;stroke-width:0.850407;paint-order:fill markers stroke;stop-color:#000000"
             d="m -1001.294,-409.63798 0.053,-3.57568 4.94088,-1.03418 -0.0747,4.37695 c -1.64002,0.0812 -3.28025,0.16393 -4.91898,0.23291 z" /><path
             id="path81077"
             style="fill:#eeeedd;fill-opacity:1;stroke-width:0.850407;paint-order:fill markers stroke;stop-color:#000000"
             d="m -994.54836,-409.96171 0.0835,-4.66992 4.59815,-0.9624 -0.10694,5.38623 c -1.52593,0.0915 -3.05019,0.16566 -4.5747,0.24609 z" /><path
             id="path81079"
             style="fill:#eeeedd;fill-opacity:1;stroke-width:0.850407;paint-order:fill markers stroke;stop-color:#000000"
             d="m -988.25247,-410.32645 0.11573,-5.6294 4.27295,-0.89355 -0.14063,6.23584 c -1.41767,0.0989 -2.83246,0.19848 -4.24805,0.28711 z" /><path
             id="path81081"
             style="fill:#eeeedd;fill-opacity:1;stroke-width:0.850407;paint-order:fill markers stroke;stop-color:#000000"
             d="m -982.36233,-410.72196 0.15088,-6.47315 3.98877,-0.83496 -0.17578,7.01368 c -1.32262,0.10503 -2.64303,0.19842 -3.96387,0.29443 z" /><path
             id="path81083"
             style="fill:#eeeedd;fill-opacity:1;stroke-width:0.850407;paint-order:fill markers stroke;stop-color:#000000"
             d="m -976.88088,-411.14823 0.18603,-7.20264 3.61084,-0.75439 -0.21094,7.64062 c -1.19589,0.10548 -2.39156,0.21832 -3.58593,0.31641 z" /><path
             id="path81085"
             style="fill:#eeeedd;fill-opacity:1;stroke-width:0.850407;paint-order:fill markers stroke;stop-color:#000000"
             d="m -971.78323,-411.59647 0.21973,-7.82813 3.28271,-0.68701 -0.24462,8.23096 c -1.08704,0.10509 -2.17159,0.18564 -3.25782,0.28418 z" /><path
             id="path81087"
             style="fill:#eeeedd;fill-opacity:1;stroke-width:0.850407;paint-order:fill markers stroke;stop-color:#000000"
             d="m -966.94485,-412.03007 0.25635,-8.41406 2.96924,-0.62256 -0.27686,8.73194 c -0.98261,0.10268 -1.96633,0.20692 -2.94873,0.30468 z" /><path
             id="path81089"
             style="fill:#eeeedd;fill-opacity:1;stroke-width:0.850407;paint-order:fill markers stroke;stop-color:#000000"
             d="m -962.26321,-412.51346 0.29004,-8.91797 2.66895,-0.55811 -0.30909,9.17725 c -0.88404,0.0995 -1.76704,0.20348 -2.6499,0.29883 z" /><path
             id="path81091"
             style="fill:#eeeedd;fill-opacity:1;stroke-width:0.850407;paint-order:fill markers stroke;stop-color:#000000"
             d="m -958.06057,-412.98954 0.3208,-9.32812 1.3374,-0.27979 -0.33105,9.4585 c -0.44232,0.052 -0.88497,0.0987 -1.32715,0.14941 z" /><path
             id="path81093"
             style="fill:#eeeedd;fill-opacity:1;stroke-width:0.850407;paint-order:fill markers stroke;stop-color:#000000"
             d="m -955.40481,-413.29716 0.34131,-9.58007 1.17627,-0.2461 -0.3501,9.68115 c -0.38877,0.0475 -0.77752,0.0983 -1.16748,0.14502 z" /><path
             id="path81095"
             style="fill:#eeeedd;fill-opacity:1;stroke-width:0.850407;paint-order:fill markers stroke;stop-color:#000000"
             d="m -953.43166,-413.53886 0.35742,-9.75439 0.56982,-0.12012 -0.36035,9.80127 c -0.18784,0.0246 -0.37839,0.0494 -0.56689,0.0732 z" /></g></g></g><g
       id="g4046"
       transform="matrix(1.9557382,0,0,1.9557382,1053.2013,406.66785)"
       style="fill:#eeeedd;fill-opacity:1"><path
         d="m -1088.3625,-451.41962 q -0.5552,0 -1.0409,0.25446 -0.4858,0.25446 -0.8328,0.64771 -0.347,0.39325 -0.5552,0.87903 -0.2082,0.4858 -0.2082,0.97158 v 11.31186 q 0,0.74024 0.2082,1.24916 0.2314,0.53205 0.6014,0.85591 0.3702,0.34699 0.8328,0.48578 0.4858,0.16193 0.9947,0.16193 h 5.2048 v -2.82218 h -4.0713 q -0.4858,0 -0.4858,-0.53206 v -10.08581 q 0,-0.53206 0.4858,-0.53206 h 1.92 v 5.82943 h -0.9022 v 2.66025 h 4.0483 v -11.33499 z"
         id="path14777-3"
         style="font-weight:bold;font-size:131.597px;font-family:'FTY STRATEGYCIDE NCV';-inkscape-font-specification:'FTY STRATEGYCIDE NCV Bold';fill:#eeeedd;fill-opacity:1;stroke-width:0.272814;stroke-linecap:square;stroke-linejoin:bevel;paint-order:stroke fill markers" /><path
         d="m -1079.228,-434.6022 h 5.2511 q 0.9021,0 1.5035,-0.27759 0.6246,-0.27759 1.0179,-0.67085 0.3933,-0.39325 0.5551,-0.80964 0.1851,-0.39326 0.1851,-0.64771 v -3.79376 q -0.024,-0.32385 -0.2315,-0.69398 -0.2082,-0.37012 -0.5318,-0.69397 -0.3239,-0.32386 -0.7402,-0.57832 -0.3934,-0.23132 -0.7867,-0.30073 0.2315,-0.0694 0.5785,-0.27759 0.3468,-0.20819 0.6939,-0.53205 0.3702,-0.32385 0.6939,-0.78651 0.3471,-0.46264 0.5553,-1.08722 v -5.6675 h -3.2849 v 5.3205 q -0.1156,0.37012 -0.4395,0.69398 -0.3007,0.32385 -0.6477,0.55519 -0.3469,0.23132 -0.694,0.34699 -0.3238,0.13879 -0.4626,0.13879 v -7.05545 h -3.2154 z m 3.2154,-7.5875 q 0.2776,0.0462 0.6477,0.16193 0.3701,0.13879 0.6939,0.34699 0.3239,0.20819 0.5784,0.48578 0.2776,0.30072 0.347,0.69398 v 2.49832 q 0,0.34699 -0.1851,0.55518 -0.1851,0.23133 -0.5783,0.23133 h -1.5036 z"
         id="path14779-6"
         style="font-weight:bold;font-size:131.597px;font-family:'FTY STRATEGYCIDE NCV';-inkscape-font-specification:'FTY STRATEGYCIDE NCV Bold';fill:#eeeedd;fill-opacity:1;stroke-width:0.272814;stroke-linecap:square;stroke-linejoin:bevel;paint-order:stroke fill markers" /><path
         d="m -1065.1895,-451.41962 q -0.509,0 -0.9484,0.20819 -0.4164,0.2082 -0.7403,0.55518 -0.3007,0.347 -0.4857,0.78651 -0.1851,0.43953 -0.1851,0.90218 v 11.89018 q 0,0.48578 0.1851,0.9253 0.185,0.43951 0.4857,0.78651 0.3239,0.34698 0.7403,0.55517 0.4394,0.2082 0.9484,0.2082 h 4.7421 v -2.84532 h -3.3541 q -0.509,0 -0.4628,-0.53204 v -2.12821 h 3.5856 v -2.63711 h -3.5856 v -5.34365 q 0,-0.48578 0.4628,-0.48578 h 3.3541 v -2.84531 z"
         id="path14781-7"
         style="font-weight:bold;font-size:131.597px;font-family:'FTY STRATEGYCIDE NCV';-inkscape-font-specification:'FTY STRATEGYCIDE NCV Bold';fill:#eeeedd;fill-opacity:1;stroke-width:0.272814;stroke-linecap:square;stroke-linejoin:bevel;paint-order:stroke fill markers" /><path
         d="m -1057.5125,-434.48853 h 5.066 q 0.7634,0 1.4343,-0.27759 0.6939,-0.25446 1.2028,-0.74026 0.5321,-0.46264 0.8329,-1.11036 0.3237,-0.62458 0.3237,-1.36483 v -9.85448 q 0,-0.74026 -0.3237,-1.38797 -0.3008,-0.62458 -0.8329,-1.08724 -0.5089,-0.46264 -1.2028,-0.74024 -0.6709,-0.25446 -1.4343,-0.25446 h -5.066 z m 4.8116,-14.20344 q 0.347,0 0.5783,0.37012 0.2314,0.37012 0.2314,0.94844 v 8.95233 q 0,0.57831 -0.2314,0.94844 -0.2313,0.37012 -0.5783,0.37012 h -1.5731 v -11.58945 z"
         id="path14783-5"
         style="font-weight:bold;font-size:131.597px;font-family:'FTY STRATEGYCIDE NCV';-inkscape-font-specification:'FTY STRATEGYCIDE NCV Bold';fill:#eeeedd;fill-opacity:1;stroke-width:0.272814;stroke-linecap:square;stroke-linejoin:bevel;paint-order:stroke fill markers" /><path
         d="m -1045.8335,-437.7251 q 0,0.74024 0.3008,1.36482 0.3237,0.64771 0.8327,1.11037 0.5321,0.46265 1.2261,0.7171 0.6939,0.2776 1.4342,0.2776 h 1.0872 q 0.7635,0 1.4342,-0.2776 0.6941,-0.25445 1.226,-0.7171 0.5321,-0.46266 0.8328,-1.11037 0.3239,-0.62458 0.3239,-1.36482 v -13.69452 h -3.2154 v 6.10701 h -2.267 v -6.10701 h -3.2155 z m 5.4825,-4.85785 v 4.62651 q 0,0.60146 -0.2545,0.97158 -0.2314,0.37012 -0.5784,0.37012 h -0.6013 q -0.3471,0 -0.6015,-0.32385 -0.2313,-0.32386 -0.2313,-1.01785 v -4.62651 z"
         id="path14785-3"
         style="font-weight:bold;font-size:131.597px;font-family:'FTY STRATEGYCIDE NCV';-inkscape-font-specification:'FTY STRATEGYCIDE NCV Bold';fill:#eeeedd;fill-opacity:1;stroke-width:0.272814;stroke-linecap:square;stroke-linejoin:bevel;paint-order:stroke fill markers" /></g></g></svg>
