<?xml version="1.0" encoding="UTF-8" standalone="no"?>
<!-- Created with Inkscape (http://www.inkscape.org/) -->

<svg
   xml:space="preserve"
   viewBox="0 0 318.19311 79.686402"
   height="79.686401"
   width="318.19312"
   id="svg148"
   version="1.1"
   sodipodi:docname="logo-h.svg"
   inkscape:version="1.2.2 (b0a8486541, 2022-12-01)"
   xmlns:inkscape="http://www.inkscape.org/namespaces/inkscape"
   xmlns:sodipodi="http://sodipodi.sourceforge.net/DTD/sodipodi-0.dtd"
   xmlns="http://www.w3.org/2000/svg"
   xmlns:svg="http://www.w3.org/2000/svg"><sodipodi:namedview
     id="namedview21453"
     pagecolor="#ffffff"
     bordercolor="#000000"
     borderopacity="0.25"
     inkscape:showpageshadow="2"
     inkscape:pageopacity="0.0"
     inkscape:pagecheckerboard="0"
     inkscape:deskcolor="#d1d1d1"
     showgrid="false"
     inkscape:zoom="1.9925007"
     inkscape:cx="111.91966"
     inkscape:cy="63.488058"
     inkscape:window-width="1334"
     inkscape:window-height="744"
     inkscape:window-x="26"
     inkscape:window-y="0"
     inkscape:window-maximized="1"
     inkscape:current-layer="g7317"
     inkscape:lockguides="false" /><defs
     id="defs152" /><g
     id="g156"
     transform="matrix(1.3333333,0,0,-1.3333333,1513.8416,-806.29894)"><g
       id="g31849"><rect
         style="vector-effect:non-scaling-stroke;fill:#19212c;fill-opacity:1;stroke:none;stroke-width:0.749999;stroke-dasharray:none;-inkscape-stroke:hairline;paint-order:fill markers stroke;stop-color:#000000"
         id="rect26650"
         width="806.55396"
         height="725.90771"
         x="-2059.5791"
         y="-118.96348"
         transform="scale(1,-1)" /><path
         id="path26652"
         style="color:#000000;fill:#c5a773;fill-opacity:1;stroke-width:1;stroke-linecap:round;stroke-linejoin:round;-inkscape-stroke:none"
         d="m -1655.3423,-13.96297 c -0.3595,0.0042 -0.7133,-0.07608 -1.0309,-0.251069 l -0.019,-0.01902 c -0.057,-0.01902 -0.1332,-0.05706 -0.194,-0.07608 l -99.8568,-68.484263 c -0.1712,-0.152163 -0.3081,-0.332856 -0.4185,-0.528766 -0.076,-0.0951 -0.1521,-0.171183 -0.2225,-0.277697 -0.1712,-0.32715 -0.2397,-0.69234 -0.2225,-1.059433 0,-0.05706 0,-0.133142 0,-0.194007 0.057,-0.450782 0.2681,-0.871132 0.5858,-1.198282 0.2967,-0.296717 0.6752,-0.500235 1.086,-0.585826 l 0.1142,-0.05706 94.2564,-13.707967 -79.9354,-10.58767 c -1.0652,-0.13314 -1.864,-1.04231 -1.8659,-2.11734 v -17.10728 -33.76852 c 0,-0.96624 0.6543,-1.81264 1.5882,-2.06181 l 30.9265,-8.13557 -30.7316,-5.26597 c -2.1312,-0.35759 -2.4504,-3.28843 -0.4451,-4.09565 l 33.0443,-13.2064 -32.7934,-8.44218 c -0.076,-0.038 -0.1521,-0.0761 -0.2225,-0.11412 -0.1522,-0.0571 -0.3081,-0.15216 -0.4451,-0.25107 -0.1522,-0.11412 -0.2777,-0.24346 -0.3899,-0.38991 -0.1141,-0.11413 -0.2016,-0.24917 -0.2796,-0.38992 -0.057,-0.15216 -0.1141,-0.31193 -0.1332,-0.47361 -0.057,-0.13314 -0.095,-0.27579 -0.1141,-0.41844 v -8.58141 c -0.01,-0.70946 0.3367,-1.37898 0.9187,-1.78221 l 12.092,-8.05207 -11.5627,-3.92846 c -1.5767,-0.5554 -1.9366,-2.62234 -0.6409,-3.67777 l 85.5915,-67.59278 c 0.776,-0.61056 1.8697,-0.61056 2.6469,0 l 85.5915,67.62074 c 1.3676,1.04802 0.9986,3.20074 -0.641,3.73331 l -11.5069,3.84496 12.0642,8.05207 c 0.5973,0.38611 0.9624,1.04422 0.9758,1.75558 v 8.58141 c -6e-4,1.06514 -0.7837,1.96765 -1.8393,2.11753 l -32.5984,8.38645 33.0163,13.2064 c 2.0045,0.80646 1.6852,3.73863 -0.4451,4.09565 l -30.6758,5.23801 30.8709,8.13576 c 0.9435,0.25107 1.5978,1.11269 1.5882,2.08957 v 33.76853 17.10727 c -7e-4,1.06514 -0.7836,1.96747 -1.8392,2.11735 l -79.9634,10.58767 94.1729,13.707965 h 0.076 c 0.1521,0.05706 0.2853,0.114122 0.4184,0.194007 0.1902,0.05706 0.3633,0.133142 0.5288,0.222538 0.095,0.0951 0.1712,0.19591 0.2511,0.306228 0.1521,0.152162 0.2872,0.334758 0.3899,0.528765 0.019,0.114122 0.038,0.220636 0.057,0.334758 0.076,0.23395 0.095,0.479313 0.076,0.724675 -0.011,0.0951 -0.038,0.20542 -0.057,0.306228 -0.057,0.270088 -0.1712,0.524961 -0.3348,0.751303 -0.01,0.01864 -0.018,0.03804 -0.019,0.05706 -0.018,0.01883 -0.038,0.03804 -0.057,0.05706 -0.095,0.152163 -0.2244,0.294815 -0.3614,0.418448 l -99.7731,68.400763 c -0.019,0.01902 -0.057,0.03804 -0.076,0.05706 h -0.019 c -0.3195,0.226342 -0.6961,0.361387 -1.086,0.389917 -0.019,1.91e-4 -0.038,1.91e-4 -0.057,0 z m -2.1731,-6.213185 v -22.986083 l -32.6263,-13.067165 -47.9501,-19.168891 z m 2.1174,-26.775316 91.6377,-36.666084 -91.6098,-13.345813 -91.6375,13.345813 z m -2.1174,-57.283949 v -25.9951 -53.55044 l -20.1442,5.3217 v 35.63518 c -0.01,1.1222 -0.8845,2.04716 -2.0059,2.11754 l -14.2653,0.91868 -4.1236,0.25107 c -0.3747,0.019 -0.7494,-0.0571 -1.086,-0.22254 -0.01,-0.009 -0.018,-0.0186 -0.019,-0.019 -0.3138,-0.17118 -0.582,-0.40323 -0.7798,-0.69614 l -0.057,-0.17119 c -0.1712,-0.30622 -0.2701,-0.65049 -0.2777,-1.00237 v -30.81523 l -38.533,10.14164 v 32.09683 15.21266 z m -34.4095,-39.95375 9.9747,-0.64098 v -24.46263 l -9.9747,-1.72705 z m 9.9747,-29.44995 v -6.46406 c 0.015,-0.43177 0.1521,-0.85021 0.4184,-1.19829 0.038,-0.0571 0.095,-0.11412 0.1332,-0.17118 0.2662,-0.32905 0.6257,-0.57251 1.0309,-0.69614 l 24.1841,-6.38038 c 0.038,-0.0108 0.095,-0.019 0.1332,-0.019 l 0.057,-0.019 h 0.057 l 0.1712,-0.0571 c 0.038,-0.0103 0.076,-0.019 0.1141,-0.019 0.2587,-0.038 0.525,-0.038 0.7798,0.019 h 0.019 l 14.3767,3.817 30.3694,7.99634 32.4032,-5.54462 -40.706,-16.32687 -2.034,-0.80836 c -0.019,-0.009 -0.038,-0.0185 -0.057,-0.019 l -34.8829,-13.98661 h -0.019 l -17.0514,6.88194 c -0.038,9.5e-4 -0.076,9.5e-4 -0.1141,0 l -17.4972,6.99321 c -0.076,0.0571 -0.1522,0.0951 -0.2225,0.13314 l -8.4422,3.3434 -2.3682,0.94721 -32.0132,12.84425 32.4868,5.57239 1.8944,-0.50214 c 0.1331,-0.0137 0.2796,-0.0137 0.4184,0 l 0.1142,-0.0571 c 0.095,0.002 0.2054,0.0112 0.3062,0.019 0.019,-1.9e-4 0.038,-1.9e-4 0.057,0 l 4.1791,0.69614 c 0.4793,0.0951 0.9111,0.34998 1.2268,0.72468 v 0.019 c 0.4337,0.45839 0.5022,0.5573 0.5022,0.5573 z m -17.7201,-26.77532 h 0.019 l 1.9783,-0.77983 -28.4748,-8.16353 -2.3684,1.36566 z m 88.6285,0 28.8369,-7.57846 -2.3962,-1.36566 -28.4468,8.16353 z m -8.4702,-3.34339 29.7566,-8.58141 -11.2842,-6.46406 -30.4807,10.22533 z m -71.7162,-0.019 11.7854,-4.70849 -30.2857,-10.25329 -11.2005,6.40833 z m 17.8873,-7.13263 17.1629,-6.88175 c 0.5097,-0.20352 1.0784,-0.20352 1.5882,0 l 16.9676,6.79825 31.6512,-10.61544 -49.3991,-28.33537 -49.399,28.33537 z m -65.5032,-0.13314 18.7231,-11.22828 h 0.019 l 4.7365,-2.86979 0.057,0.019 57.7855,-34.68797 v -9.08278 l -62.9678,41.98759 -4.4857,2.98125 -13.8752,9.25016 z m 153.7416,-17.55293 10.866,-3.65 -81.1336,-64.16569 -81.1615,64.08219 10.9219,3.70554 69.0138,-45.99974 c 0.3728,-0.23776 0.8102,-0.35568 1.2534,-0.33476 0.3519,0.009 0.6962,0.0951 1.0024,0.2777 0.057,0.0154 0.1331,0.038 0.194,0.0571 z" /><g
         id="g26692"
         transform="matrix(2.8260464,0,0,2.8260464,-2756.5223,-1257.5698)"
         style="fill:#c5a773;fill-opacity:1;stroke-width:0.353851"><g
           aria-label="BLOQUE"
           transform="scale(1,-1)"
           id="g26666"
           style="font-size:40.6305px;line-height:1.25;font-family:Viga;-inkscape-font-specification:'Viga, Normal';text-align:center;text-anchor:middle;fill:#c5a773;fill-opacity:1;stroke-width:0.265388"><path
             d="m 336.81965,-307.83569 q 0,4.02242 -2.19405,6.17583 -2.15342,2.15342 -6.05395,2.15342 h -3.90052 q -4.7944,0 -6.82593,-1.66585 -1.99089,-1.66585 -1.99089,-5.76953 v -21.49354 h 12.22978 q 4.14431,0 6.21646,2.07216 2.11279,2.07216 2.11279,5.85079 0,2.19405 -1.13765,3.73801 -1.09703,1.54396 -2.43783,2.19404 3.98179,1.86901 3.98179,6.74467 z m -9.1825,-9.30439 q 3.12855,0 3.12855,-3.12855 0,-3.12854 -3.12855,-3.12854 h -6.1352 v 6.25709 z m 3.53486,9.01997 q 0,-1.95026 -0.69072,-2.92539 -0.69072,-1.01576 -2.47846,-1.01576 h -6.50088 v 4.55061 q 0,1.66585 0.81261,2.31594 0.85324,0.65009 2.76287,0.65009 h 2.9254 q 3.16918,0 3.16918,-3.57549 z"
             id="path26654"
             style="fill:#c5a773;fill-opacity:1;stroke-width:0.265388" /><path
             d="m 360.42593,-299.50644 h -8.61367 q -4.87566,0 -7.06971,-1.869 -2.15341,-1.90964 -2.15341,-6.17584 v -20.88408 h 5.64764 v 20.88408 q 0,1.70648 0.77198,2.35657 0.77198,0.65009 2.8035,0.65009 h 8.61367 z"
             id="path26656"
             style="fill:#c5a773;fill-opacity:1;stroke-width:0.265388" /><path
             d="m 386.145,-315.3117 v 2.19404 q 0,7.27286 -2.76287,10.56393 -2.72225,3.29107 -8.77619,3.29107 -6.05394,0 -8.77619,-3.29107 -2.68161,-3.29107 -2.68161,-10.68582 v -2.11278 q 0,-6.74467 2.72224,-10.03574 2.76288,-3.29107 8.69493,-3.29107 5.97268,0 8.77619,3.3317 2.8035,3.3317 2.8035,10.03574 z m -5.64764,2.07215 v -1.50333 q 0,-3.90053 -0.97513,-6.21646 -1.13765,-2.68162 -4.87566,-2.68162 -3.77864,0 -4.91629,2.68162 -0.9345,2.19404 -0.9345,6.21646 v 1.50333 q 0,5.24134 1.4627,7.06971 0.56882,0.77198 1.66585,1.34081 1.13765,0.52819 2.68161,0.52819 1.58459,0 2.68161,-0.52819 1.09703,-0.5282 1.70648,-1.30018 0.60946,-0.77198 0.93451,-2.03153 0.56882,-1.99089 0.56882,-5.07881 z"
             id="path26658"
             style="fill:#c5a773;fill-opacity:1;stroke-width:0.265388" /><path
             d="m 412.31101,-314.78351 v 1.66585 q 0,6.90719 -3.45359,9.54817 2.23468,-0.12189 4.14431,-0.69072 v 4.99755 h -12.18915 q -2.51909,0 -4.83503,-0.81261 -2.31594,-0.85324 -4.02242,-2.51909 -1.66585,-1.70648 -2.15342,-4.06305 -0.48756,-2.35657 -0.48756,-6.54151 v -1.54396 q 0,-4.18494 0.48756,-6.54151 0.48757,-2.35657 2.15342,-4.02242 1.70648,-1.70648 4.02242,-2.51909 2.31594,-0.85324 4.83503,-0.85324 2.51909,0 4.7944,0.85324 2.31594,0.81261 4.02242,2.55972 1.74711,1.70648 2.19404,3.94116 0.48757,2.23468 0.48757,6.54151 z m -5.64764,1.42207 v -1.95026 q 0,-5.07882 -1.38144,-6.66341 -1.38143,-1.66585 -4.46935,-1.66585 -3.08792,0 -4.55062,1.70648 -1.05639,1.25955 -1.21891,4.3881 -0.0813,1.01576 -0.0813,2.8035 v 1.50333 q 0.0406,4.30683 0.65008,5.89142 1.13766,3.04729 5.20071,3.04729 3.53485,0 4.71314,-2.03152 0.77198,-1.4627 0.9345,-2.84414 0.20315,-1.74711 0.20315,-4.18494 z"
             id="path26660"
             style="fill:#c5a773;fill-opacity:1;stroke-width:0.265388" /><path
             d="m 438.47704,-328.43536 v 19.01508 q 0,4.71314 -3.20981,7.43538 -3.16918,2.72224 -7.84169,2.72224 -4.67251,0 -7.88232,-2.72224 -3.16917,-2.72224 -3.16917,-7.43538 v -19.01508 h 5.64763 v 18.81193 q 0,2.68161 1.4627,4.02242 1.50333,1.30017 3.94116,1.30017 2.43783,0 3.94116,-1.30017 1.50333,-1.34081 1.50333,-4.02242 v -18.81193 z"
             id="path26662"
             style="fill:#c5a773;fill-opacity:1;stroke-width:0.265388" /><path
             d="m 463.42414,-299.50644 h -10.23888 q -4.87566,0 -6.86656,-1.66585 -1.95026,-1.70648 -1.95026,-5.97268 v -21.29039 h 19.0557 v 5.03819 h -13.40806 v 6.78529 h 9.38564 l -0.4063,5.03818 h -8.97934 v 4.02242 q 0,1.70648 0.77198,2.35657 0.77198,0.65009 2.8035,0.65009 h 9.83258 z"
             id="path26664"
             style="fill:#c5a773;fill-opacity:1;stroke-width:0.265388" /></g><g
           aria-label="PROPIEDADES"
           transform="scale(1,-1)"
           id="g26690"
           style="font-size:9.49547px;line-height:1.25;font-family:Viga;-inkscape-font-specification:'Viga, Normal';text-align:center;letter-spacing:7.07866px;text-anchor:middle;fill:#c5a773;fill-opacity:1;stroke-width:0.265387"><path
             d="m 328.07543,-286.29669 q 0.58872,0.57922 0.58872,1.70919 0,1.12996 -0.58872,1.71868 -0.57923,0.57922 -1.64272,0.57922 h -1.30088 v 2.16497 h -1.31987 v -6.76078 h 2.62075 q 1.06349,0 1.64272,0.58872 z m -0.73115,1.70919 q 0,-1.12047 -0.97804,-1.12047 h -1.23441 v 2.23144 h 1.23441 q 0.47478,0 0.72166,-0.25638 0.25638,-0.25638 0.25638,-0.85459 z"
             id="path26668"
             style="fill:#c5a773;fill-opacity:1;stroke-width:0.265387" /><path
             d="m 341.97182,-280.12463 h -1.52877 l -1.31987,-2.50681 h -0.94955 v 2.50681 h -1.31987 v -5.30797 q 0,-0.75964 0.35133,-1.10148 0.35134,-0.35133 1.17744,-0.35133 h 1.12047 q 1.00652,0 1.59524,0.61721 0.59821,0.60771 0.59821,1.54776 0,0.68367 -0.36083,1.18693 -0.35133,0.49377 -0.87358,0.68368 z m -2.55428,-3.60828 q 0.4178,0 0.68367,-0.28487 0.27537,-0.29436 0.27537,-0.72165 0,-0.43679 -0.26587,-0.70267 -0.25638,-0.26587 -0.69317,-0.26587 h -0.65519 q -0.58872,0 -0.58872,0.59821 v 1.37685 z"
             id="path26670"
             style="fill:#c5a773;fill-opacity:1;stroke-width:0.265387" /><path
             d="m 355.09909,-283.81837 v 0.51275 q 0,1.69969 -0.64569,2.46883 -0.6362,0.76913 -2.05103,0.76913 -1.41482,0 -2.05102,-0.76913 -0.6267,-0.76914 -0.6267,-2.49731 v -0.49377 q 0,-1.57625 0.6362,-2.34538 0.64569,-0.76913 2.03203,-0.76913 1.39583,0 2.05102,0.77863 0.65519,0.77863 0.65519,2.34538 z m -1.31987,0.48427 v -0.35134 q 0,-0.91156 -0.22789,-1.4528 -0.26588,-0.6267 -1.13946,-0.6267 -0.88308,0 -1.14895,0.6267 -0.2184,0.51275 -0.2184,1.4528 v 0.35134 q 0,1.22491 0.34184,1.65221 0.13293,0.18041 0.38931,0.31335 0.26588,0.12344 0.6267,0.12344 0.37033,0 0.6267,-0.12344 0.25638,-0.12344 0.39881,-0.30386 0.14244,-0.18041 0.2184,-0.47477 0.13294,-0.46528 0.13294,-1.18693 z"
             id="path26672"
             style="fill:#c5a773;fill-opacity:1;stroke-width:0.265387" /><path
             d="m 367.59965,-286.29669 q 0.58872,0.57922 0.58872,1.70919 0,1.12996 -0.58872,1.71868 -0.57922,0.57922 -1.64272,0.57922 h -1.30087 v 2.16497 h -1.31988 v -6.76078 h 2.62075 q 1.0635,0 1.64272,0.58872 z m -0.73115,1.70919 q 0,-1.12047 -0.97803,-1.12047 h -1.23441 v 2.23144 h 1.23441 q 0.47477,0 0.72165,-0.25638 0.25638,-0.25638 0.25638,-0.85459 z"
             id="path26674"
             style="fill:#c5a773;fill-opacity:1;stroke-width:0.265387" /><path
             d="m 377.69786,-280.12463 h -1.31987 v -6.76078 h 1.31987 z"
             id="path26676"
             style="fill:#c5a773;fill-opacity:1;stroke-width:0.265387" /><path
             d="m 390.80612,-280.12463 h -2.39285 q -1.13946,0 -1.60474,-0.38932 -0.45578,-0.39881 -0.45578,-1.39583 v -4.97563 h 4.45337 v 1.17744 h -3.1335 v 1.58574 h 2.19345 l -0.0949,1.17744 h -2.0985 v 0.94005 q 0,0.39881 0.18041,0.55074 0.18042,0.15193 0.65519,0.15193 h 2.2979 z"
             id="path26678"
             style="fill:#c5a773;fill-opacity:1;stroke-width:0.265387" /><path
             d="m 404.27523,-283.53351 0.01,0.73115 q -0.038,0.69317 -0.17092,1.16795 -0.13294,0.47477 -0.52225,0.86408 -0.64569,0.6457 -1.8801,0.6457 -1.45281,0 -1.99405,-0.37982 -0.54124,-0.38932 -0.54124,-1.39584 v -4.98512 h 2.63024 q 1.13946,0 1.78515,0.64569 0.52225,0.52225 0.61721,1.2724 0.0665,0.53174 0.0665,1.43381 z m -1.60473,1.81364 q 0.18041,-0.2184 0.22789,-0.59822 0.057,-0.38931 0.057,-1.20592 0,-0.81661 -0.057,-1.17744 -0.0475,-0.37032 -0.22789,-0.58872 -0.34184,-0.4178 -0.98753,-0.4178 h -1.18693 v 3.74122 q 0,0.37981 0.25637,0.52225 0.25638,0.14243 0.91157,0.14243 0.66468,0 1.00652,-0.4178 z"
             id="path26680"
             style="fill:#c5a773;fill-opacity:1;stroke-width:0.265387" /><path
             d="m 417.63988,-280.12463 h -1.37684 l -0.37982,-1.16795 h -2.26942 l -0.37032,1.16795 h -1.37685 l 2.16497,-6.19105 q 0.14243,-0.32285 0.31335,-0.44629 0.18041,-0.12344 0.43679,-0.12344 0.25638,0 0.40831,0.11395 0.16142,0.11394 0.28486,0.45578 z m -2.06052,-2.27892 -0.79762,-2.67772 -0.8356,2.67772 z"
             id="path26682"
             style="fill:#c5a773;fill-opacity:1;stroke-width:0.265387" /><path
             d="m 430.74815,-283.53351 0.009,0.73115 q -0.038,0.69317 -0.17091,1.16795 -0.13294,0.47477 -0.52225,0.86408 -0.6457,0.6457 -1.88011,0.6457 -1.4528,0 -1.99405,-0.37982 -0.54124,-0.38932 -0.54124,-1.39584 v -4.98512 h 2.63025 q 1.13945,0 1.78515,0.64569 0.52225,0.52225 0.6172,1.2724 0.0665,0.53174 0.0665,1.43381 z m -1.60474,1.81364 q 0.18042,-0.2184 0.2279,-0.59822 0.057,-0.38931 0.057,-1.20592 0,-0.81661 -0.057,-1.17744 -0.0475,-0.37032 -0.2279,-0.58872 -0.34183,-0.4178 -0.98752,-0.4178 h -1.18694 v 3.74122 q 0,0.37981 0.25638,0.52225 0.25638,0.14243 0.91156,0.14243 0.66469,0 1.00652,-0.4178 z"
             id="path26684"
             style="fill:#c5a773;fill-opacity:1;stroke-width:0.265387" /><path
             d="m 443.43862,-280.12463 h -2.39286 q -1.13946,0 -1.60474,-0.38932 -0.45578,-0.39881 -0.45578,-1.39583 v -4.97563 h 4.45338 v 1.17744 h -3.13351 v 1.58574 h 2.19345 l -0.0949,1.17744 h -2.0985 v 0.94005 q 0,0.39881 0.18041,0.55074 0.18042,0.15193 0.65519,0.15193 h 2.29791 z"
             id="path26686"
             style="fill:#c5a773;fill-opacity:1;stroke-width:0.265387" /><path
             d="m 456.36648,-282.11868 q 0,0.95904 -0.70266,1.50978 -0.70267,0.54124 -1.79464,0.54124 -0.86409,0 -1.67121,-0.47477 -0.39881,-0.24689 -0.65519,-0.69317 -0.25637,-0.45579 -0.25637,-1.03501 l 1.19643,-0.057 q 0,0.51275 0.43679,0.79762 0.43679,0.28486 0.96854,0.28486 1.18693,0 1.18693,-0.8356 0,-0.68367 -0.80712,-0.80712 l -1.10147,-0.11394 q -0.82611,-0.12344 -1.31037,-0.58872 -0.48427,-0.46528 -0.48427,-1.33886 0,-0.87358 0.69317,-1.44331 0.69317,-0.56973 1.74716,-0.56973 1.06349,0 1.70919,0.54124 0.64569,0.53175 0.64569,1.37684 l -1.17744,0.057 q -0.16142,-0.82611 -1.11097,-0.82611 -0.57922,0 -0.91156,0.24688 -0.32285,0.24689 -0.32285,0.58872 0,0.33234 0.23739,0.53175 0.23738,0.18991 0.58872,0.23739 l 1.08248,0.11394 q 1.81363,0.24688 1.81363,1.95607 z"
             id="path26688"
             style="fill:#c5a773;fill-opacity:1;stroke-width:0.265387" /></g></g><path
         id="path2390"
         style="color:#000000;fill:#c5a773;fill-opacity:1;stroke-width:1;stroke-linecap:round;stroke-linejoin:round;-inkscape-stroke:none"
         d="m 5445.8014,1604.3583 c -0.3595,0 -0.7133,-0.076 -1.0309,-0.2511 l -0.019,-0.019 c -0.057,-0.019 -0.1332,-0.057 -0.194,-0.076 l -99.8568,-68.4843 c -0.1712,-0.1521 -0.3081,-0.3328 -0.4185,-0.5287 -0.076,-0.095 -0.1521,-0.1712 -0.2225,-0.2777 -0.1712,-0.3272 -0.2397,-0.6924 -0.2225,-1.0595 0,-0.057 0,-0.1331 0,-0.194 0.057,-0.4508 0.2681,-0.8711 0.5858,-1.1983 0.2967,-0.2967 0.6752,-0.5002 1.086,-0.5858 l 0.1142,-0.057 94.2564,-13.7079 -79.9354,-10.5877 c -1.0652,-0.1332 -1.864,-1.0423 -1.8659,-2.1174 v -17.1072 -33.7686 c 0,-0.9662 0.6543,-1.8126 1.5882,-2.0618 l 30.9265,-8.1355 -30.7316,-5.266 c -2.1312,-0.3576 -2.4504,-3.2884 -0.4451,-4.0957 l 33.0443,-13.2064 -32.7934,-8.4421 c -0.076,-0.038 -0.1521,-0.076 -0.2225,-0.1142 -0.1522,-0.057 -0.3081,-0.1521 -0.4451,-0.251 -0.1522,-0.1141 -0.2777,-0.2435 -0.3899,-0.3899 -0.1141,-0.1142 -0.2016,-0.2492 -0.2796,-0.39 -0.057,-0.1521 -0.1141,-0.3119 -0.1332,-0.4736 -0.057,-0.1331 -0.095,-0.2758 -0.1141,-0.4184 v -8.5814 c -0.01,-0.7095 0.3367,-1.379 0.9187,-1.7822 l 12.092,-8.0521 -11.5627,-3.9285 c -1.5767,-0.5554 -1.9366,-2.6223 -0.6409,-3.6777 l 85.5915,-67.5928 c 0.776,-0.6106 1.8697,-0.6106 2.6469,0 l 85.5915,67.6207 c 1.3676,1.0481 0.9986,3.2008 -0.641,3.7333 l -11.5069,3.845 12.0642,8.0521 c 0.5973,0.3861 0.9624,1.0442 0.9758,1.7556 v 8.5814 c -6e-4,1.0651 -0.7837,1.9676 -1.8393,2.1175 l -32.5984,8.3864 33.0163,13.2064 c 2.0045,0.8065 1.6852,3.7387 -0.4451,4.0957 l -30.6758,5.238 30.8709,8.1358 c 0.9435,0.251 1.5978,1.1127 1.5882,2.0895 v 33.7686 17.1072 c -7e-4,1.0652 -0.7836,1.9675 -1.8392,2.1174 l -79.9634,10.5877 94.1729,13.7079 h 0.076 c 0.1521,0.057 0.2853,0.1141 0.4184,0.194 0.1902,0.057 0.3633,0.1332 0.5288,0.2226 0.095,0.095 0.1712,0.1959 0.2511,0.3062 0.1521,0.1522 0.2872,0.3348 0.3899,0.5288 0.019,0.1141 0.038,0.2206 0.057,0.3347 0.076,0.234 0.095,0.4793 0.076,0.7247 -0.011,0.095 -0.038,0.2054 -0.057,0.3062 -0.057,0.2701 -0.1712,0.525 -0.3348,0.7513 -0.01,0.019 -0.018,0.038 -0.019,0.057 -0.018,0.019 -0.038,0.038 -0.057,0.057 -0.095,0.1522 -0.2244,0.2948 -0.3614,0.4185 l -99.7731,68.4007 c -0.019,0.019 -0.057,0.038 -0.076,0.057 h -0.019 c -0.3195,0.2264 -0.6961,0.3614 -1.086,0.39 -0.019,10e-5 -0.038,10e-5 -0.057,0 z m -2.1731,-6.2132 v -22.9861 l -32.6263,-13.0672 -47.9501,-19.1689 z m 2.1174,-26.7753 91.6377,-36.6661 -91.6098,-13.3458 -91.6375,13.3458 z m -2.1174,-57.284 v -25.9951 -53.5504 l -20.1442,5.3217 v 35.6352 c -0.01,1.1222 -0.8845,2.0471 -2.0059,2.1175 l -14.2653,0.9187 -4.1236,0.251 c -0.3747,0.019 -0.7494,-0.057 -1.086,-0.2225 -0.01,-0.01 -0.018,-0.019 -0.019,-0.019 -0.3138,-0.1712 -0.582,-0.4032 -0.7798,-0.6961 l -0.057,-0.1712 c -0.1712,-0.3062 -0.2701,-0.6505 -0.2777,-1.0024 v -30.8152 l -38.533,10.1416 v 32.0968 15.2127 z m -34.4095,-39.9537 9.9747,-0.641 v -24.4626 l -9.9747,-1.7271 z m 9.9747,-29.45 v -6.464 c 0.015,-0.4318 0.1521,-0.8503 0.4184,-1.1983 0.038,-0.057 0.095,-0.1142 0.1332,-0.1712 0.2662,-0.3291 0.6257,-0.5725 1.0309,-0.6962 l 24.1841,-6.3803 c 0.038,-0.011 0.095,-0.019 0.1332,-0.019 l 0.057,-0.019 h 0.057 l 0.1712,-0.057 c 0.038,-0.01 0.076,-0.019 0.1141,-0.019 0.2587,-0.038 0.525,-0.038 0.7798,0.019 h 0.019 l 14.3767,3.817 30.3694,7.9963 32.4032,-5.5446 -40.706,-16.3269 -2.034,-0.8083 c -0.019,-0.01 -0.038,-0.019 -0.057,-0.019 l -34.8829,-13.9867 h -0.019 l -17.0514,6.882 c -0.038,9e-4 -0.076,9e-4 -0.1141,0 l -17.4972,6.9932 c -0.076,0.057 -0.1522,0.095 -0.2225,0.1331 l -8.4422,3.3434 -2.3682,0.9472 -32.0132,12.8443 32.4868,5.5724 1.8944,-0.5022 c 0.1331,-0.014 0.2796,-0.014 0.4184,0 l 0.1142,-0.057 c 0.095,0 0.2054,0.011 0.3062,0.019 0.019,-10e-5 0.038,-10e-5 0.057,0 l 4.1791,0.6962 c 0.4793,0.095 0.9111,0.35 1.2268,0.7247 v 0.019 c 0.4337,0.4584 0.5022,0.5573 0.5022,0.5573 z m -17.7201,-26.7753 h 0.019 l 1.9783,-0.7798 -28.4748,-8.1636 -2.3684,1.3657 z m 88.6285,0 28.8369,-7.5785 -2.3962,-1.3656 -28.4468,8.1635 z m -8.4702,-3.3434 29.7566,-8.5814 -11.2842,-6.4641 -30.4807,10.2254 z m -71.7162,-0.019 11.7854,-4.7085 -30.2857,-10.2533 -11.2005,6.4084 z m 17.8873,-7.1326 17.1629,-6.8818 c 0.5097,-0.2035 1.0784,-0.2035 1.5882,0 l 16.9676,6.7983 31.6512,-10.6155 -49.3991,-28.3353 -49.399,28.3353 z m -65.5032,-0.1332 18.7231,-11.2282 h 0.019 l 4.7365,-2.8698 0.057,0.019 57.7855,-34.688 v -9.0828 l -62.9678,41.9876 -4.4857,2.9813 -13.8752,9.2501 z m 153.7416,-17.5529 10.866,-3.65 -81.1336,-64.1657 -81.1615,64.0822 10.9219,3.7055 69.0138,-45.9997 c 0.3728,-0.2378 0.8102,-0.3557 1.2534,-0.3348 0.3519,0.01 0.6962,0.095 1.0024,0.2777 0.057,0.015 0.1331,0.038 0.194,0.057 z" /></g><g
       id="g7317"
       transform="matrix(-0.65751042,0,0,0.65751042,-1756.9164,-380.57497)"><path
         id="path7201"
         style="fill:#eeeedd;fill-opacity:1;stroke-width:0.850397;paint-order:fill markers stroke;stop-color:#000000"
         d="m -1028.3233,-340.90604 c -30.4355,0 -55.1773,-24.02648 -57.268,-54.65332 l 8.5239,-1.78418 0.1274,4.18359 2.4287,2.21777 15.7486,-0.50976 1.6728,-1.62012 0.2505,-8.50488 11.2632,-2.35693 c 7.5016,4.06799 16.1009,6.99198 24.2285,8.84912 l 0.5581,14.68652 c 2.8194,0.358 4.9367,0.59249 7.125,0.81152 2.9939,4.86068 11.7546,7.06415 16.34622,7.0459 0.16966,-6.7e-4 0.33294,-0.005 0.49072,-0.0117 4.58959,-0.19538 6.65415,-0.41726 10.78564,-0.94189 l 0.34131,-8.96045 c 5.81358,-2.51434 10.8184,-6.3794 11.86817,-11.73926 l 0.74121,-0.37646 c 0.63803,-0.0687 1.3322,-0.15232 1.98047,-0.22412 -2.44689,30.26118 -27.0305,53.88867 -57.21244,53.88867 z" /><g
         id="g7315"><path
           id="path7203"
           style="vector-effect:non-scaling-stroke;fill:#112222;stroke-width:0.75;stroke-linecap:square;stroke-linejoin:bevel;-inkscape-stroke:hairline;paint-order:stroke fill markers;fill-opacity:1"
           d="m -997.31838,372.54081 c -4.59162,-0.0183 -13.35232,2.18522 -16.34622,7.0459 -2.1883,0.21903 -4.3056,0.45352 -7.125,0.81152 l -0.5581,14.68652 c -8.1276,1.85714 -16.7269,4.78113 -24.2285,8.84912 l -11.2632,-2.35693 -0.2505,-8.50488 -1.6728,-1.62012 -15.7486,-0.50976 -2.4287,2.21777 -0.1274,4.18359 -19.5864,-4.09863 -0.2813,14.63818 c -4.8182,0.35384 -9.695,0.77542 -14.562,1.18506 v 22.73341 h 166.21143 v -6.87794 l -2.57959,-0.54053 -0.57422,-14.75976 c -3.46103,-0.45707 -6.95763,-0.87076 -10.47802,-1.25537 l -0.46143,-12.17871 c -5.2621,-0.6682 -9.56441,-1.17187 -13.7124,-1.61866 l -0.74121,-0.37646 c -1.04977,-5.35986 -6.05459,-9.22492 -11.86817,-11.73926 l -0.34131,-8.96045 c -4.13149,-0.52463 -6.19605,-0.74651 -10.78564,-0.94189 -0.15778,-0.007 -0.32106,-0.0111 -0.49072,-0.0117 z"
           transform="scale(1,-1)" /><g
           id="g7313"
           style="fill:#eeeedd;fill-opacity:1"><g
             id="g7257"
             style="fill:#eeeedd;fill-opacity:1"><path
               style="fill:#eeeedd;fill-opacity:1;stroke-width:0.850406;paint-order:fill markers stroke;stop-color:#000000"
               d="m -995.8533,-375.12495 -0.0255,2.51593 c -0.3162,0.0191 -0.6324,0.0391 -0.94839,0.0565 l 0.0192,-2.51546 c 0.31808,-0.0176 0.63637,-0.0377 0.95466,-0.057 z"
               id="path7205" /><path
               style="fill:#eeeedd;fill-opacity:1;stroke-width:0.850406;paint-order:fill markers stroke;stop-color:#000000"
               d="m -994.59075,-375.20308 -0.0338,2.5166 c -0.29957,0.0202 -0.5985,0.0369 -0.89785,0.0556 l 0.0278,-2.51611 c 0.30133,-0.0188 0.60223,-0.0357 0.90378,-0.0561 z"
               id="path7207" /><path
               style="fill:#eeeedd;fill-opacity:1;stroke-width:0.850406;paint-order:fill markers stroke;stop-color:#000000"
               d="m -993.39583,-375.29098 -0.0416,2.51766 c -0.27903,0.0207 -0.55823,0.0417 -0.83705,0.0611 l 0.0361,-2.51685 c 0.28067,-0.0196 0.56172,-0.0409 0.84259,-0.0619 z"
               id="path7209" /><path
               style="fill:#eeeedd;fill-opacity:1;stroke-width:0.850406;paint-order:fill markers stroke;stop-color:#000000"
               d="m -992.29965,-375.37482 -0.0488,2.51846 c -0.25957,0.021 -0.51895,0.0402 -0.77831,0.06 l 0.0437,-2.51763 c 0.26108,-0.02 0.52218,-0.0396 0.78346,-0.0608 z"
               id="path7211" /><path
               style="fill:#eeeedd;fill-opacity:1;stroke-width:0.850406;paint-order:fill markers stroke;stop-color:#000000"
               d="m -991.27765,-375.46279 -0.0555,2.51907 c -0.2411,0.021 -0.48189,0.0421 -0.72267,0.062 l 0.0508,-2.51846 c 0.24238,-0.0202 0.48488,-0.0414 0.72746,-0.0627 z"
               id="path7213" /><path
               style="fill:#eeeedd;fill-opacity:1;stroke-width:0.850406;paint-order:fill markers stroke;stop-color:#000000"
               d="m -990.31818,-375.54802 -0.0619,2.51992 c -0.22488,0.021 -0.44932,0.0407 -0.67393,0.0607 l 0.0574,-2.51956 c 0.22606,-0.0202 0.4521,-0.0398 0.67839,-0.061 z"
               id="path7215" /><path
               style="fill:#eeeedd;fill-opacity:1;stroke-width:0.850406;paint-order:fill markers stroke;stop-color:#000000"
               d="m -989.44477,-375.63463 -0.0676,2.52082 c -0.20329,0.0201 -0.40653,0.0411 -0.60958,0.0604 l 0.0636,-2.52044 c 0.20432,-0.0195 0.40908,-0.0405 0.61361,-0.0608 z"
               id="path7217" /><path
               style="fill:#eeeedd;fill-opacity:1;stroke-width:0.850406;paint-order:fill markers stroke;stop-color:#000000"
               d="m -988.62875,-375.71523 -0.073,2.52164 c -0.18474,0.0193 -0.36912,0.036 -0.55375,0.0546 l 0.0693,-2.52108 c 0.18592,-0.0188 0.37145,-0.0357 0.55742,-0.0552 z"
               id="path7219" /><path
               style="fill:#eeeedd;stroke-width:0.850406;paint-order:fill markers stroke;stop-color:#000000;fill-opacity:1"
               d="m -987.85386,-375.79829 -0.0781,2.52276 c -0.16695,0.0183 -0.33415,0.0366 -0.50109,0.0543 l 0.0747,-2.52193 c 0.16801,-0.0179 0.33626,-0.0366 0.50442,-0.0551 z"
               id="path7221" /><path
               style="fill:#eeeedd;stroke-width:0.850406;paint-order:fill markers stroke;stop-color:#000000;fill-opacity:1"
               d="m -987.10446,-375.88253 -0.083,2.5234 c -0.15016,0.0172 -0.30007,0.0349 -0.45005,0.0516 l 0.08,-2.5231 c 0.15087,-0.0169 0.30197,-0.0346 0.45303,-0.0519 z"
               id="path7223" /><path
               style="fill:#eeeedd;stroke-width:0.850406;paint-order:fill markers stroke;stop-color:#000000;fill-opacity:1"
               d="m -986.61197,-375.93965 -0.0862,2.52427 c -0.0751,0.009 -0.15044,0.0171 -0.22554,0.0258 l 0.0847,-2.52373 c 0.0756,-0.009 0.15144,-0.0174 0.22705,-0.0264 z"
               id="path7225" /><path
               style="fill:#eeeedd;stroke-width:0.850406;paint-order:fill markers stroke;stop-color:#000000;fill-opacity:1"
               d="m -986.18536,-375.99094 -0.089,2.52457 c -0.066,0.008 -0.13208,0.0163 -0.1983,0.0242 l 0.0877,-2.52431 c 0.0664,-0.008 0.13294,-0.0164 0.1996,-0.0244 z"
               id="path7227" /><path
               style="fill:#eeeedd;stroke-width:0.850406;paint-order:fill markers stroke;stop-color:#000000;fill-opacity:1"
               d="m -985.95081,-376.01984 -0.0906,2.52516 c -0.0319,0.004 -0.0641,0.008 -0.0961,0.012 l 0.09,-2.52499 c 0.0321,-0.004 0.0646,-0.008 0.0968,-0.0121 z"
               id="path7229" /><path
               style="fill:#eeeedd;fill-opacity:1;stroke-width:0.850404;paint-order:fill markers stroke;stop-color:#000000"
               d="m -1004.6431,-383.08147 0.042,4.14041 c 0.5203,0.0315 1.0407,0.0643 1.5607,0.093 l -0.032,-4.13963 c -0.5235,-0.029 -1.0473,-0.0621 -1.5711,-0.0938 z"
               id="path7231" /><path
               style="fill:#eeeedd;fill-opacity:1;stroke-width:0.850404;paint-order:fill markers stroke;stop-color:#000000"
               d="m -1006.7209,-383.21004 0.056,4.14151 c 0.493,0.0333 0.9849,0.0607 1.4776,0.0915 l -0.046,-4.14072 c -0.4959,-0.031 -0.9911,-0.0587 -1.4874,-0.0923 z"
               id="path7233" /><path
               style="fill:#eeeedd;fill-opacity:1;stroke-width:0.850404;paint-order:fill markers stroke;stop-color:#000000"
               d="m -1008.6873,-383.3547 0.069,4.14326 c 0.4592,0.0341 0.9186,0.0686 1.3775,0.10052 l -0.059,-4.14192 c -0.4619,-0.0322 -0.9244,-0.0673 -1.3866,-0.10182 z"
               id="path7235" /><path
               style="fill:#eeeedd;fill-opacity:1;stroke-width:0.850404;paint-order:fill markers stroke;stop-color:#000000"
               d="m -1010.4913,-383.49267 0.08,4.14457 c 0.4271,0.0346 0.854,0.0662 1.2808,0.0988 l -0.072,-4.14321 c -0.4297,-0.0329 -0.8594,-0.0652 -1.2894,-0.1001 z"
               id="path7237" /><path
               style="fill:#eeeedd;fill-opacity:1;stroke-width:0.850404;paint-order:fill markers stroke;stop-color:#000000"
               d="m -1012.1731,-383.63744 0.091,4.14558 c 0.3968,0.0346 0.7931,0.0693 1.1893,0.10207 l -0.083,-4.14457 c -0.3989,-0.0332 -0.7979,-0.0682 -1.1971,-0.10309 z"
               id="path7239" /><path
               style="fill:#eeeedd;fill-opacity:1;stroke-width:0.850404;paint-order:fill markers stroke;stop-color:#000000"
               d="m -1013.7521,-383.7777 0.1018,4.14698 c 0.37,0.0346 0.7394,0.067 1.109,0.0999 l -0.094,-4.14638 c -0.372,-0.0333 -0.744,-0.0656 -1.1164,-0.10045 z"
               id="path7241" /><path
               style="fill:#eeeedd;fill-opacity:1;stroke-width:0.850404;paint-order:fill markers stroke;stop-color:#000000"
               d="m -1015.1895,-383.92022 0.1112,4.14844 c 0.3346,0.0331 0.6691,0.0676 1.0032,0.0994 l -0.1046,-4.14782 c -0.3362,-0.0321 -0.6732,-0.0666 -1.0098,-0.10003 z"
               id="path7243" /><path
               style="fill:#eeeedd;fill-opacity:1;stroke-width:0.850404;paint-order:fill markers stroke;stop-color:#000000"
               d="m -1016.5324,-384.05287 0.1201,4.1498 c 0.304,0.0317 0.6074,0.0593 0.9113,0.0898 l -0.114,-4.14888 c -0.306,-0.031 -0.6113,-0.0587 -0.9174,-0.0908 z"
               id="path7245" /><path
               style="fill:#eeeedd;fill-opacity:1;stroke-width:0.850404;paint-order:fill markers stroke;stop-color:#000000"
               d="m -1017.8076,-384.18957 0.1285,4.15165 c 0.2747,0.03 0.5499,0.0602 0.8246,0.0893 l -0.123,-4.15029 c -0.2765,-0.0294 -0.5534,-0.0603 -0.8301,-0.0907 z"
               id="path7247" /><path
               style="fill:#eeeedd;fill-opacity:1;stroke-width:0.850404;paint-order:fill markers stroke;stop-color:#000000"
               d="m -1019.0409,-384.3282 0.1366,4.15271 c 0.2471,0.0283 0.4938,0.0574 0.7406,0.085 l -0.1316,-4.15221 c -0.2483,-0.0278 -0.497,-0.0568 -0.7456,-0.0854 z"
               id="path7249" /><path
               style="fill:#eeeedd;fill-opacity:1;stroke-width:0.850404;paint-order:fill markers stroke;stop-color:#000000"
               d="m -1019.8514,-384.42219 0.142,4.15412 c 0.1236,0.0145 0.2475,0.0282 0.3711,0.0425 l -0.1394,-4.15325 c -0.1244,-0.0146 -0.2492,-0.0287 -0.3737,-0.0434 z"
               id="path7251" /><path
               style="fill:#eeeedd;fill-opacity:1;stroke-width:0.850404;paint-order:fill markers stroke;stop-color:#000000"
               d="m -1020.5534,-384.5066 0.1465,4.15463 c 0.1087,0.0131 0.2174,0.0268 0.3264,0.0398 l -0.1444,-4.15419 c -0.1094,-0.0131 -0.2188,-0.0269 -0.3285,-0.0402 z"
               id="path7253" /><path
               style="fill:#eeeedd;fill-opacity:1;stroke-width:0.850404;paint-order:fill markers stroke;stop-color:#000000"
               d="m -1020.9394,-384.55417 0.1491,4.1556 c 0.053,0.007 0.1055,0.0133 0.1582,0.0197 l -0.148,-4.15532 c -0.053,-0.007 -0.1063,-0.0134 -0.1593,-0.02 z"
               id="path7255" /></g><g
             id="g7311"
             style="fill:#eeeedd;fill-opacity:1"><path
               id="path7259"
               style="fill:#eeeedd;fill-opacity:1;stroke-width:0.850405;paint-order:fill markers stroke;stop-color:#000000"
               d="m -999.70169,-402.42802 0.0234,-3.0498 c 1.19678,-0.0431 2.39161,-0.0896 3.58301,-0.13916 l -0.0308,2.9751 c -1.19239,0.072 -2.384,0.14807 -3.57569,0.21386 z" /><path
               id="path7261"
               style="fill:#eeeedd;fill-opacity:1;stroke-width:0.850405;paint-order:fill markers stroke;stop-color:#000000"
               d="m -994.78127,-402.72538 0.0322,-2.94873 c 1.13325,-0.0495 2.26429,-0.10122 3.39258,-0.15674 l -0.0396,2.896 c -1.12967,0.0764 -2.25636,0.13882 -3.38525,0.20947 z" /><path
               id="path7263"
               style="fill:#eeeedd;stroke-width:0.850405;paint-order:fill markers stroke;stop-color:#000000;fill-opacity:1"
               d="m -990.0762,-403.033 0.041,-2.86377 c 1.05679,-0.0543 2.11023,-0.11175 3.1626,-0.17138 l -0.0469,2.80517 c -1.05232,0.0784 -2.10524,0.15659 -3.15674,0.22998 z" /><path
               id="path7265"
               style="fill:#eeeedd;stroke-width:0.850405;paint-order:fill markers stroke;stop-color:#000000;fill-opacity:1"
               d="m -985.74758,-403.35087 0.0483,-2.78466 c 0.98173,-0.0576 1.96212,-0.1164 2.93994,-0.17872 l -0.0527,2.73633 c -0.97886,0.0795 -1.95737,0.1521 -2.93554,0.22705 z" /><path
               id="path7267"
               style="fill:#eeeedd;stroke-width:0.850405;paint-order:fill markers stroke;stop-color:#000000;fill-opacity:1"
               d="m -981.70901,-403.67313 0.0542,-2.71436 c 0.91188,-0.0599 1.82204,-0.12198 2.73047,-0.18603 l -0.0586,2.66601 c -0.90919,0.0796 -1.81798,0.15908 -2.72608,0.23438 z" /><path
               id="path7269"
               style="fill:#eeeedd;stroke-width:0.850405;paint-order:fill markers stroke;stop-color:#000000;fill-opacity:1"
               d="m -977.93118,-403.99686 0.0601,-2.64991 c 0.85012,-0.0616 1.69885,-0.12516 2.5459,-0.19043 l -0.0645,2.61036 c -0.84803,0.0795 -1.6945,0.15426 -2.54151,0.22998 z" /><path
               id="path7271"
               style="fill:#eeeedd;stroke-width:0.850405;paint-order:fill markers stroke;stop-color:#000000;fill-opacity:1"
               d="m -974.41555,-404.32352 0.0659,-2.59131 c 0.76827,-0.0606 1.53555,-0.12236 2.30127,-0.18604 l -0.0688,2.54883 c -0.76659,0.076 -1.5325,0.15542 -2.29834,0.22852 z" /><path
               id="path7273"
               style="fill:#eeeedd;stroke-width:0.850405;paint-order:fill markers stroke;stop-color:#000000;fill-opacity:1"
               d="m -971.14749,-404.64725 0.0688,-2.53565 c 0.69853,-0.0594 1.39542,-0.11965 2.0918,-0.18164 l -0.0732,2.51074 c -0.6967,0.073 -1.39118,0.13626 -2.08741,0.20655 z" /><path
               id="path7275"
               style="fill:#eeeedd;stroke-width:0.850405;paint-order:fill markers stroke;stop-color:#000000;fill-opacity:1"
               d="m -968.04641,-404.9578 0.0747,-2.49756 c 0.63131,-0.0574 1.26158,-0.11617 1.89111,-0.17578 l -0.0762,2.4668 c -0.62955,0.0693 -1.26015,0.13943 -1.88965,0.20654 z" /><path
               id="path7277"
               style="fill:#eeeedd;stroke-width:0.850405;paint-order:fill markers stroke;stop-color:#000000;fill-opacity:1"
               d="m -965.04641,-405.28446 0.0776,-2.45361 c 0.56714,-0.055 1.13354,-0.11026 1.69921,-0.167 l -0.0791,2.42432 c -0.56626,0.0651 -1.13219,0.13291 -1.69775,0.19629 z" /><path
               id="path7279"
               style="fill:#eeeedd;stroke-width:0.850405;paint-order:fill markers stroke;stop-color:#000000;fill-opacity:1"
               d="m -962.35549,-405.59647 0.0806,-2.40967 c 0.28441,-0.0291 0.56851,-0.0583 0.85254,-0.0879 l -0.082,2.40088 c -0.28328,0.0335 -0.56781,0.0637 -0.85107,0.0967 z" /><path
               id="path7281"
               style="fill:#eeeedd;stroke-width:0.850405;paint-order:fill markers stroke;stop-color:#000000;fill-opacity:1"
               d="m -960.65334,-405.79569 0.0835,-2.40527 c 0.24858,-0.0263 0.50024,-0.0495 0.74854,-0.0762 l -0.085,2.39063 c -0.2485,0.0301 -0.49726,0.061 -0.74707,0.0908 z" /><path
               id="path7283"
               style="fill:#eeeedd;stroke-width:0.850405;paint-order:fill markers stroke;stop-color:#000000;fill-opacity:1"
               d="m -959.39065,-405.9495 0.085,-2.37012 c 0.12107,-0.0131 0.24229,-0.0263 0.36328,-0.0396 l -0.085,2.36426 c -0.12028,0.0153 -0.24258,0.0306 -0.36328,0.0454 z" /><path
               id="path7285"
               style="fill:#eeeedd;fill-opacity:1;stroke-width:0.850407;paint-order:fill markers stroke;stop-color:#000000"
               d="m -1016.294,-409.17216 0.01,-0.89209 5.5854,-1.16894 -0.021,1.91308 c -1.8579,0.0514 -3.7157,0.11206 -5.5723,0.14795 z" /><path
               id="path7287"
               style="fill:#eeeedd;fill-opacity:1;stroke-width:0.850407;paint-order:fill markers stroke;stop-color:#000000"
               d="m -1008.627,-409.38016 0.026,-2.29248 5.2925,-1.10743 -0.044,3.2417 c -1.7604,0.0682 -3.5159,0.10394 -5.2749,0.15821 z" /><path
               id="path7289"
               style="fill:#eeeedd;fill-opacity:1;stroke-width:0.850407;paint-order:fill markers stroke;stop-color:#000000"
               d="m -1001.294,-409.63798 0.053,-3.57568 4.94088,-1.03418 -0.0747,4.37695 c -1.64002,0.0812 -3.28025,0.16393 -4.91898,0.23291 z" /><path
               id="path7291"
               style="fill:#eeeedd;fill-opacity:1;stroke-width:0.850407;paint-order:fill markers stroke;stop-color:#000000"
               d="m -994.54836,-409.96171 0.0835,-4.66992 4.59815,-0.9624 -0.10694,5.38623 c -1.52593,0.0915 -3.05019,0.16566 -4.5747,0.24609 z" /><path
               id="path7293"
               style="fill:#eeeedd;fill-opacity:1;stroke-width:0.850407;paint-order:fill markers stroke;stop-color:#000000"
               d="m -988.25247,-410.32645 0.11573,-5.6294 4.27295,-0.89355 -0.14063,6.23584 c -1.41767,0.0989 -2.83246,0.19848 -4.24805,0.28711 z" /><path
               id="path7295"
               style="fill:#eeeedd;fill-opacity:1;stroke-width:0.850407;paint-order:fill markers stroke;stop-color:#000000"
               d="m -982.36233,-410.72196 0.15088,-6.47315 3.98877,-0.83496 -0.17578,7.01368 c -1.32262,0.10503 -2.64303,0.19842 -3.96387,0.29443 z" /><path
               id="path7297"
               style="fill:#eeeedd;fill-opacity:1;stroke-width:0.850407;paint-order:fill markers stroke;stop-color:#000000"
               d="m -976.88088,-411.14823 0.18603,-7.20264 3.61084,-0.75439 -0.21094,7.64062 c -1.19589,0.10548 -2.39156,0.21832 -3.58593,0.31641 z" /><path
               id="path7299"
               style="fill:#eeeedd;fill-opacity:1;stroke-width:0.850407;paint-order:fill markers stroke;stop-color:#000000"
               d="m -971.78323,-411.59647 0.21973,-7.82813 3.28271,-0.68701 -0.24462,8.23096 c -1.08704,0.10509 -2.17159,0.18564 -3.25782,0.28418 z" /><path
               id="path7301"
               style="fill:#eeeedd;fill-opacity:1;stroke-width:0.850407;paint-order:fill markers stroke;stop-color:#000000"
               d="m -966.94485,-412.03007 0.25635,-8.41406 2.96924,-0.62256 -0.27686,8.73194 c -0.98261,0.10268 -1.96633,0.20692 -2.94873,0.30468 z" /><path
               id="path7303"
               style="fill:#eeeedd;fill-opacity:1;stroke-width:0.850407;paint-order:fill markers stroke;stop-color:#000000"
               d="m -962.26321,-412.51346 0.29004,-8.91797 2.66895,-0.55811 -0.30909,9.17725 c -0.88404,0.0995 -1.76704,0.20348 -2.6499,0.29883 z" /><path
               id="path7305"
               style="fill:#eeeedd;fill-opacity:1;stroke-width:0.850407;paint-order:fill markers stroke;stop-color:#000000"
               d="m -958.06057,-412.98954 0.3208,-9.32812 1.3374,-0.27979 -0.33105,9.4585 c -0.44232,0.052 -0.88497,0.0987 -1.32715,0.14941 z" /><path
               id="path7307"
               style="fill:#eeeedd;fill-opacity:1;stroke-width:0.850407;paint-order:fill markers stroke;stop-color:#000000"
               d="m -955.40481,-413.29716 0.34131,-9.58007 1.17627,-0.2461 -0.3501,9.68115 c -0.38877,0.0475 -0.77752,0.0983 -1.16748,0.14502 z" /><path
               id="path7309"
               style="fill:#eeeedd;fill-opacity:1;stroke-width:0.850407;paint-order:fill markers stroke;stop-color:#000000"
               d="m -953.43166,-413.53886 0.35742,-9.75439 0.56982,-0.12012 -0.36035,9.80127 c -0.18784,0.0246 -0.37839,0.0494 -0.56689,0.0732 z" /></g></g></g></g><g
       id="g9091"
       transform="matrix(1.9557382,0,0,1.9557382,1122.844,224.89508)"
       style="fill:#eeeedd;fill-opacity:1"><path
         d="m -1092.6771,-454.7562 q -0.7121,0 -1.3351,0.32635 -0.623,0.32635 -1.068,0.83071 -0.4451,0.50436 -0.7121,1.12739 -0.267,0.62304 -0.267,1.24607 v 14.50778 q 0,0.94939 0.267,1.60209 0.2967,0.68237 0.7714,1.09773 0.4747,0.44502 1.068,0.62303 0.6231,0.20768 1.2758,0.20768 h 6.6753 v -3.61953 h -5.2216 q -0.623,0 -0.623,-0.68237 v -12.93536 q 0,-0.68237 0.623,-0.68237 h 2.4625 v 7.4764 h -1.1571 v 3.41185 h 5.192 v -14.53745 z"
         id="path9081"
         style="font-weight:bold;font-size:131.597px;font-family:'FTY STRATEGYCIDE NCV';-inkscape-font-specification:'FTY STRATEGYCIDE NCV Bold';fill:#eeeedd;fill-opacity:1;stroke-width:0.349891;stroke-linecap:square;stroke-linejoin:bevel;paint-order:stroke fill markers" /><path
         d="m -1081.9984,-433.18737 h 6.7347 q 1.157,0 1.9284,-0.35602 0.801,-0.35602 1.3054,-0.86038 0.5043,-0.50436 0.712,-1.03839 0.2374,-0.50436 0.2374,-0.83071 v -4.8656 q -0.03,-0.41535 -0.2967,-0.89004 -0.267,-0.4747 -0.6824,-0.89005 -0.4153,-0.41536 -0.9494,-0.74171 -0.5043,-0.29668 -1.0087,-0.38569 0.2967,-0.089 0.7417,-0.35602 0.4451,-0.26701 0.8901,-0.68237 0.4747,-0.41535 0.89,-1.00872 0.4451,-0.59336 0.7121,-1.39441 v -7.26872 h -4.2129 v 6.8237 q -0.1484,0.47469 -0.5637,0.89005 -0.3857,0.41535 -0.8307,0.71204 -0.445,0.29668 -0.8901,0.44502 -0.4153,0.17801 -0.5933,0.17801 v -9.04882 h -4.1239 z m 4.1239,-9.73119 q 0.356,0.0593 0.8307,0.20768 0.4747,0.178 0.89,0.44502 0.4154,0.26701 0.7417,0.62303 0.356,0.38569 0.4451,0.89005 v 3.20417 q 0,0.44503 -0.2374,0.71204 -0.2374,0.29668 -0.7417,0.29668 h -1.9284 z"
         id="path9083"
         style="font-weight:bold;font-size:131.597px;font-family:'FTY STRATEGYCIDE NCV';-inkscape-font-specification:'FTY STRATEGYCIDE NCV Bold';fill:#eeeedd;fill-opacity:1;stroke-width:0.349891;stroke-linecap:square;stroke-linejoin:bevel;paint-order:stroke fill markers" /><path
         d="m -1065.5065,-454.7562 q -0.6527,0 -1.2164,0.26701 -0.534,0.26702 -0.9494,0.71204 -0.3857,0.44503 -0.623,1.00872 -0.2374,0.5637 -0.2374,1.15707 v 15.24949 q 0,0.62303 0.2374,1.18673 0.2373,0.56369 0.623,1.00872 0.4154,0.44502 0.9494,0.71203 0.5637,0.26702 1.2164,0.26702 h 6.082 v -3.6492 h -4.3019 q -0.6527,0 -0.5934,-0.68237 v -2.72948 h 4.5986 v -3.38218 h -4.5986 v -6.85337 q 0,-0.62303 0.5934,-0.62303 h 4.3019 v -3.6492 z"
         id="path9085"
         style="font-weight:bold;font-size:131.597px;font-family:'FTY STRATEGYCIDE NCV';-inkscape-font-specification:'FTY STRATEGYCIDE NCV Bold';fill:#eeeedd;fill-opacity:1;stroke-width:0.349891;stroke-linecap:square;stroke-linejoin:bevel;paint-order:stroke fill markers" /><path
         d="m -1057.5336,-433.04159 h 6.4973 q 0.9791,0 1.8395,-0.35602 0.89,-0.32635 1.5427,-0.94939 0.6824,-0.59336 1.0681,-1.42407 0.4153,-0.80105 0.4153,-1.75043 v -12.63868 q 0,-0.94939 -0.4153,-1.7801 -0.3857,-0.80104 -1.0681,-1.39441 -0.6527,-0.59336 -1.5427,-0.94938 -0.8604,-0.32635 -1.8395,-0.32635 h -6.4973 z m 6.171,-18.21632 q 0.445,0 0.7417,0.47469 0.2967,0.4747 0.2967,1.2164 v 11.48162 q 0,0.74171 -0.2967,1.2164 -0.2967,0.47469 -0.7417,0.47469 h -2.0175 v -14.8638 z"
         id="path9087"
         style="font-weight:bold;font-size:131.597px;font-family:'FTY STRATEGYCIDE NCV';-inkscape-font-specification:'FTY STRATEGYCIDE NCV Bold';fill:#eeeedd;fill-opacity:1;stroke-width:0.349891;stroke-linecap:square;stroke-linejoin:bevel;paint-order:stroke fill markers" /><path
         d="m -1043.7988,-437.19259 q 0,0.94939 0.3857,1.75043 0.4153,0.83071 1.068,1.42408 0.6824,0.59336 1.5725,0.91971 0.89,0.35602 1.8394,0.35602 h 1.3944 q 0.9791,0 1.8394,-0.35602 0.8901,-0.32635 1.5724,-0.91971 0.6824,-0.59337 1.0681,-1.42408 0.4154,-0.80104 0.4154,-1.75043 v -17.56361 h -4.1239 v 7.83242 h -2.9075 v -7.83242 h -4.1239 z m 7.0314,-6.23033 v 5.93365 q 0,0.77137 -0.3264,1.24607 -0.2967,0.47469 -0.7417,0.47469 h -0.7713 q -0.4451,0 -0.7714,-0.41536 -0.2967,-0.41535 -0.2967,-1.3054 v -5.93365 z"
         id="path9089"
         style="font-weight:bold;font-size:131.597px;font-family:'FTY STRATEGYCIDE NCV';-inkscape-font-specification:'FTY STRATEGYCIDE NCV Bold';fill:#eeeedd;fill-opacity:1;stroke-width:0.349891;stroke-linecap:square;stroke-linejoin:bevel;paint-order:stroke fill markers" /></g></g></svg>
