<?xml version="1.0" encoding="UTF-8" standalone="no"?>
<!-- Uploaded to: SVG Repo, www.svgrepo.com, Generator: SVG Repo Mixer Tools -->

<svg
   fill="#000000"
   height="800px"
   width="800px"
   version="1.1"
   id="Layer_1"
   viewBox="0 0 512 512"
   xml:space="preserve"
   sodipodi:docname="desk-svgrepo-com.svg"
   inkscape:version="1.2.2 (b0a8486541, 2022-12-01)"
   xmlns:inkscape="http://www.inkscape.org/namespaces/inkscape"
   xmlns:sodipodi="http://sodipodi.sourceforge.net/DTD/sodipodi-0.dtd"
   xmlns="http://www.w3.org/2000/svg"
   xmlns:svg="http://www.w3.org/2000/svg"><defs
   id="defs1569" /><sodipodi:namedview
   id="namedview1567"
   pagecolor="#ffffff"
   bordercolor="#000000"
   borderopacity="0.25"
   inkscape:showpageshadow="2"
   inkscape:pageopacity="0.0"
   inkscape:pagecheckerboard="0"
   inkscape:deskcolor="#d1d1d1"
   showgrid="false"
   inkscape:zoom="0.349375"
   inkscape:cx="97.316637"
   inkscape:cy="613.95349"
   inkscape:window-width="1334"
   inkscape:window-height="744"
   inkscape:window-x="26"
   inkscape:window-y="0"
   inkscape:window-maximized="1"
   inkscape:current-layer="Layer_1" />
<g
   id="g1552"
   style="fill:#eeeedd;fill-opacity:1">
	<g
   id="g1550"
   style="fill:#eeeedd;fill-opacity:1">
		<polygon
   points="464.372,209.597 464.372,132.202 428.651,132.202 428.651,167.923 392.93,167.923 392.93,209.597     202.419,209.597 202.419,185.783 309.581,185.783 309.581,19.086 59.535,19.086 59.535,185.783 166.698,185.783 166.698,209.597     0,209.597 0,281.039 512,281.039 512,209.597   "
   id="polygon1548"
   style="fill:#eeeedd;fill-opacity:1" />
	</g>
</g>
<g
   id="g1558"
   style="fill:#eeeedd;fill-opacity:1">
	<g
   id="g1556"
   style="fill:#eeeedd;fill-opacity:1">
		<polygon
   points="0,316.76 0,388.202 31.795,388.202 12.255,485.908 47.28,492.914 68.223,388.202 154.791,388.202 154.791,316.76       "
   id="polygon1554"
   style="fill:#eeeedd;fill-opacity:1" />
	</g>
</g>
<g
   id="g1564"
   style="fill:#eeeedd;fill-opacity:1">
	<g
   id="g1562"
   style="fill:#eeeedd;fill-opacity:1">
		<polygon
   points="512,316.76 357.209,316.76 357.209,388.202 443.777,388.202 464.72,492.914 499.745,485.908 480.205,388.202     512,388.202   "
   id="polygon1560"
   style="fill:#eeeedd;fill-opacity:1" />
	</g>
</g>
</svg>
