<?xml version="1.0" encoding="UTF-8" standalone="no"?>
<!-- Uploaded to: SVG Repo, www.svgrepo.com, Generator: SVG Repo Mixer Tools -->

<svg
   fill="#000000"
   version="1.1"
   id="Capa_1"
   viewBox="0 0 490 490"
   xml:space="preserve"
   sodipodi:docname="list-svgrepo-com.svg"
   inkscape:version="1.2.2 (b0a8486541, 2022-12-01)"
   xmlns:inkscape="http://www.inkscape.org/namespaces/inkscape"
   xmlns:sodipodi="http://sodipodi.sourceforge.net/DTD/sodipodi-0.dtd"
   xmlns="http://www.w3.org/2000/svg"
   xmlns:svg="http://www.w3.org/2000/svg"><defs
   id="defs945" /><sodipodi:namedview
   id="namedview943"
   pagecolor="#ffffff"
   bordercolor="#000000"
   borderopacity="0.25"
   inkscape:showpageshadow="2"
   inkscape:pageopacity="0.0"
   inkscape:pagecheckerboard="0"
   inkscape:deskcolor="#d1d1d1"
   showgrid="false"
   inkscape:zoom="0.40333948"
   inkscape:cx="208.26129"
   inkscape:cy="313.63158"
   inkscape:window-width="1334"
   inkscape:window-height="744"
   inkscape:window-x="26"
   inkscape:window-y="0"
   inkscape:window-maximized="1"
   inkscape:current-layer="Capa_1" />
<g
   id="g940">
	<g
   id="g938">
		<rect
   x="0.1"
   width="489.9"
   height="87.9"
   id="rect934"
   style="fill:#eeeedd;fill-opacity:1" />
		<path
   d="M 0,112.4 V 490 H 490 V 112.4 H 245 Z M 116.7,429.3 H 60.3 v -64.9 h 56.4 z m 0,-101.9 H 60.3 v -64.9 h 56.4 z m 0,-101.5 H 60.3 v -65.3 h 56.4 z m 313,175.4 h -245 c -7,0 -12.4,-5.4 -12.4,-12.4 0,-7 5.4,-12.4 12.4,-12.4 h 244.9 c 7,0 12.4,5.4 12.4,12.4 0,7 -5.3,12.4 -12.3,12.4 z m 0,-93.7 h -245 c -7,0 -12.4,-5.4 -12.4,-12.4 0,-7 5.4,-12.4 12.4,-12.4 h 244.9 c 7,0 12.4,5.4 12.4,12.4 0,7 -5.3,12.4 -12.3,12.4 z m 0,-94.1 h -245 c -7,0 -12.4,-5.4 -12.4,-12.4 0,-7 5.4,-12.4 12.4,-12.4 h 244.9 c 7,0 12.4,5.4 12.4,12.4 0,7 -5.3,12.4 -12.3,12.4 z"
   id="path936"
   style="fill:#eeeedd;fill-opacity:1"
   sodipodi:nodetypes="cccccccccccccccccccccsssssssssssssssssssss" />
	</g>
</g>
</svg>
