<?xml version="1.0" encoding="UTF-8" standalone="no"?>
<!-- Uploaded to: SVG Repo, www.svgrepo.com, Generator: SVG Repo Mixer Tools -->

<svg
   fill="#000000"
   height="800px"
   width="800px"
   version="1.1"
   id="Capa_1"
   viewBox="0 0 489.7 489.7"
   xml:space="preserve"
   sodipodi:docname="padlock-svgrepo-com.svg"
   inkscape:version="1.2.2 (b0a8486541, 2022-12-01)"
   xmlns:inkscape="http://www.inkscape.org/namespaces/inkscape"
   xmlns:sodipodi="http://sodipodi.sourceforge.net/DTD/sodipodi-0.dtd"
   xmlns="http://www.w3.org/2000/svg"
   xmlns:svg="http://www.w3.org/2000/svg"><defs
   id="defs411" /><sodipodi:namedview
   id="namedview409"
   pagecolor="#ffffff"
   bordercolor="#000000"
   borderopacity="0.25"
   inkscape:showpageshadow="2"
   inkscape:pageopacity="0.0"
   inkscape:pagecheckerboard="0"
   inkscape:deskcolor="#d1d1d1"
   showgrid="false"
   inkscape:zoom="0.69875"
   inkscape:cx="183.18426"
   inkscape:cy="401.43113"
   inkscape:window-width="1334"
   inkscape:window-height="744"
   inkscape:window-x="26"
   inkscape:window-y="0"
   inkscape:window-maximized="1"
   inkscape:current-layer="Capa_1" />
<g
   id="g406"
   style="fill:#eeeedd;fill-opacity:1">
	<g
   id="g404"
   style="fill:#eeeedd;fill-opacity:1">
		<path
   d="M244.85,177.3c-86.3,0-156.2,70-156.2,156.2s70,156.2,156.2,156.2s156.2-70,156.2-156.2S331.15,177.3,244.85,177.3z     M264.65,341.7v42.4c0,11.4-9.2,20.6-20.6,20.6l0,0c-11.4,0-20.6-9.2-20.6-20.6v-42.4c-14-7.8-23.3-23.7-21.4-41.6    c2.3-19.4,17.9-35,36.9-36.9c25.3-2.7,47,17.1,47,42C286.05,320.7,277.55,334.3,264.65,341.7z"
   id="path400"
   style="fill:#eeeedd;fill-opacity:1" />
		<path
   d="M186.95,115.5c0-31.5,25.7-56.7,56.7-56.7c31.5,0,56.7,25.7,56.7,56.7v51.2c21.6,7.2,41.3,18.5,58.3,32.9v-84.1    C359.55,51.7,307.85,0,244.05,0s-115.4,51.7-115.4,115.5v86.1c16.9-14.9,36.6-26.6,58.3-34.1V115.5z"
   id="path402"
   style="fill:#eeeedd;fill-opacity:1" />
	</g>
</g>
</svg>
