<?xml version="1.0" encoding="UTF-8" standalone="no"?>
<!-- Uploaded to: SVG Repo, www.svgrepo.com, Generator: SVG Repo Mixer Tools -->

<svg
   fill="#000000"
   width="800px"
   height="800px"
   viewBox="0 0 20 20"
   version="1.1"
   id="svg2365"
   sodipodi:docname="shop-svgrepo-com.svg"
   inkscape:version="1.2.2 (b0a8486541, 2022-12-01)"
   xmlns:inkscape="http://www.inkscape.org/namespaces/inkscape"
   xmlns:sodipodi="http://sodipodi.sourceforge.net/DTD/sodipodi-0.dtd"
   xmlns="http://www.w3.org/2000/svg"
   xmlns:svg="http://www.w3.org/2000/svg">
  <defs
     id="defs2369" />
  <sodipodi:namedview
     id="namedview2367"
     pagecolor="#ffffff"
     bordercolor="#000000"
     borderopacity="0.25"
     inkscape:showpageshadow="2"
     inkscape:pageopacity="0.0"
     inkscape:pagecheckerboard="0"
     inkscape:deskcolor="#d1d1d1"
     showgrid="false"
     inkscape:zoom="0.349375"
     inkscape:cx="-37.209302"
     inkscape:cy="450.80501"
     inkscape:window-width="1334"
     inkscape:window-height="744"
     inkscape:window-x="26"
     inkscape:window-y="0"
     inkscape:window-maximized="1"
     inkscape:current-layer="svg2365" />
  <path
     d="M6.123 7.25L6.914 2H2.8L1.081 6.5C1.028 6.66 1 6.826 1 7c0 1.104 1.15 2 2.571 2 1.31 0 2.393-.764 2.552-1.75zM10 9c1.42 0 2.571-.896 2.571-2 0-.041-.003-.082-.005-.121L12.057 2H7.943l-.51 4.875c-.002.041-.004.082-.004.125 0 1.104 1.151 2 2.571 2zm5 1.046V14H5v-3.948c-.438.158-.92.248-1.429.248-.195 0-.384-.023-.571-.049V16.6c0 .77.629 1.4 1.398 1.4H15.6c.77 0 1.4-.631 1.4-1.4v-6.348a4.297 4.297 0 0 1-.571.049A4.155 4.155 0 0 1 15 10.046zM18.92 6.5L17.199 2h-4.113l.79 5.242C14.03 8.232 15.113 9 16.429 9 17.849 9 19 8.104 19 7c0-.174-.028-.34-.08-.5z"
     id="path2363"
     style="fill:#eeeedd;fill-opacity:1" />
</svg>
