<?xml version="1.0" encoding="UTF-8" standalone="no"?>
<!-- Uploaded to: SVG Repo, www.svgrepo.com, Generator: SVG Repo Mixer Tools -->

<svg
   fill="#000000"
   height="800px"
   width="800px"
   version="1.1"
   id="Capa_1"
   viewBox="0 0 489.6 489.6"
   xml:space="preserve"
   sodipodi:docname="contract-svgrepo-com.svg"
   inkscape:version="1.2.2 (b0a8486541, 2022-12-01)"
   xmlns:inkscape="http://www.inkscape.org/namespaces/inkscape"
   xmlns:sodipodi="http://sodipodi.sourceforge.net/DTD/sodipodi-0.dtd"
   xmlns="http://www.w3.org/2000/svg"
   xmlns:svg="http://www.w3.org/2000/svg"><defs
   id="defs1429" /><sodipodi:namedview
   id="namedview1427"
   pagecolor="#ffffff"
   bordercolor="#000000"
   borderopacity="0.25"
   inkscape:showpageshadow="2"
   inkscape:pageopacity="0.0"
   inkscape:pagecheckerboard="0"
   inkscape:deskcolor="#d1d1d1"
   showgrid="false"
   inkscape:zoom="0.349375"
   inkscape:cx="306.26118"
   inkscape:cy="370.6619"
   inkscape:window-width="1334"
   inkscape:window-height="744"
   inkscape:window-x="26"
   inkscape:window-y="0"
   inkscape:window-maximized="1"
   inkscape:current-layer="Capa_1" />
<g
   id="g1424"
   style="fill:#eeeedd;fill-opacity:1">
	<g
   id="g1422"
   style="fill:#eeeedd;fill-opacity:1">
		<polygon
   points="311.6,437.9 182.2,472.5 191.6,437.9 44.7,437.9 44.7,51.7 337.7,51.7 337.7,219.9 382.4,175.2 382.4,3.1 0,3.1     0,486.5 382.4,486.5 382.4,369.2   "
   id="polygon1410"
   style="fill:#eeeedd;fill-opacity:1" />
		<polygon
   points="235.1,364.9 214.9,439.5 289.9,419.7   "
   id="polygon1412"
   style="fill:#eeeedd;fill-opacity:1" />
		<polygon
   points="425.5,164.7 246.7,343.5 247.1,343.9 310.9,407.6 311.3,407.6 489.6,228.9   "
   id="polygon1414"
   style="fill:#eeeedd;fill-opacity:1" />
		<path
   d="M292.6,105.3H91.7c-6.2,0-11.7,5.1-11.7,11.7c0,6.2,5.1,11.7,11.7,11.7h200.9c6.2,0,11.7-5.1,11.7-11.7    C304.3,110.7,298.8,105.3,292.6,105.3z"
   id="path1416"
   style="fill:#eeeedd;fill-opacity:1" />
		<path
   d="M292.6,176.4H91.7c-6.2,0-11.7,5.1-11.7,11.7c0,6.2,5.1,11.7,11.7,11.7h200.9c6.2,0,11.7-5.1,11.7-11.7    C304.3,181.8,298.8,176.4,292.6,176.4z"
   id="path1418"
   style="fill:#eeeedd;fill-opacity:1" />
		<path
   d="M304.3,259.2c0-6.2-5.1-11.7-11.7-11.7H91.7c-6.2,0-11.7,5.1-11.7,11.7c0,6.2,5.1,11.7,11.7,11.7h200.9    C298.8,270.8,304.3,265.4,304.3,259.2z"
   id="path1420"
   style="fill:#eeeedd;fill-opacity:1" />
	</g>
</g>
</svg>
