<?xml version="1.0" encoding="UTF-8" standalone="no"?>
<!-- Uploaded to: SVG Repo, www.svgrepo.com, Generator: SVG Repo Mixer Tools -->

<svg
   fill="#000000"
   height="800px"
   width="800px"
   version="1.1"
   id="Capa_1"
   viewBox="0 0 489.6 489.6"
   xml:space="preserve"
   sodipodi:docname="stars-svgrepo-com.svg"
   inkscape:version="1.2.2 (b0a8486541, 2022-12-01)"
   xmlns:inkscape="http://www.inkscape.org/namespaces/inkscape"
   xmlns:sodipodi="http://sodipodi.sourceforge.net/DTD/sodipodi-0.dtd"
   xmlns="http://www.w3.org/2000/svg"
   xmlns:svg="http://www.w3.org/2000/svg"><defs
   id="defs281" /><sodipodi:namedview
   id="namedview279"
   pagecolor="#ffffff"
   bordercolor="#000000"
   borderopacity="0.25"
   inkscape:showpageshadow="2"
   inkscape:pageopacity="0.0"
   inkscape:pagecheckerboard="0"
   inkscape:deskcolor="#d1d1d1"
   showgrid="false"
   inkscape:zoom="0.69875"
   inkscape:cx="214.66905"
   inkscape:cy="401.43113"
   inkscape:window-width="1334"
   inkscape:window-height="744"
   inkscape:window-x="26"
   inkscape:window-y="0"
   inkscape:window-maximized="1"
   inkscape:current-layer="Capa_1" />
<g
   id="g276"
   style="fill:#eeeedd;fill-opacity:1">
	<g
   id="g274"
   style="fill:#eeeedd;fill-opacity:1">
		<polygon
   points="299.6,143.8 354.4,85.9 278.6,74.2 244.8,0 211,74.2 135.2,85.9 190,143.8 177.2,225.4 244.8,186.9 312.4,225.4       "
   id="polygon268"
   style="fill:#eeeedd;fill-opacity:1" />
		<polygon
   points="489.6,350.5 413.8,338.4 380,264.2 346.2,338.4 270.4,350.5 325.2,408 312.4,489.6 380,451.1 447.6,489.6     434.8,408   "
   id="polygon270"
   style="fill:#eeeedd;fill-opacity:1" />
		<polygon
   points="143.4,338.4 109.6,264.2 75.8,338.4 0,350.5 54.8,408 42,489.6 109.6,451.1 177.2,489.6 164.4,408 219.2,350.5       "
   id="polygon272"
   style="fill:#eeeedd;fill-opacity:1" />
	</g>
</g>
</svg>
