<?xml version="1.0" encoding="UTF-8" standalone="no"?>
<!-- Uploaded to: SVG Repo, www.svgrepo.com, Generator: SVG Repo Mixer Tools -->

<svg
   fill="#000000"
   height="800px"
   width="800px"
   version="1.1"
   id="Capa_1"
   viewBox="0 0 490 490"
   xml:space="preserve"
   sodipodi:docname="curriculum-svgrepo-com.svg"
   inkscape:version="1.2.2 (b0a8486541, 2022-12-01)"
   xmlns:inkscape="http://www.inkscape.org/namespaces/inkscape"
   xmlns:sodipodi="http://sodipodi.sourceforge.net/DTD/sodipodi-0.dtd"
   xmlns="http://www.w3.org/2000/svg"
   xmlns:svg="http://www.w3.org/2000/svg"><defs
   id="defs13" /><sodipodi:namedview
   id="namedview11"
   pagecolor="#ffffff"
   bordercolor="#000000"
   borderopacity="0.25"
   inkscape:showpageshadow="2"
   inkscape:pageopacity="0.0"
   inkscape:pagecheckerboard="0"
   inkscape:deskcolor="#d1d1d1"
   showgrid="false"
   inkscape:zoom="0.69875"
   inkscape:cx="183.18426"
   inkscape:cy="401.43113"
   inkscape:window-width="1334"
   inkscape:window-height="744"
   inkscape:window-x="26"
   inkscape:window-y="0"
   inkscape:window-maximized="1"
   inkscape:current-layer="Capa_1" />
<g
   id="g8"
   style="fill:#eeeedd;fill-opacity:1">
	<g
   id="g6"
   style="fill:#eeeedd;fill-opacity:1">
		<g
   id="g4"
   style="fill:#eeeedd;fill-opacity:1">
			<path
   d="M69.4,0v490h351.2V0H69.4z M183,47.1c15.9,0,28.8,12.4,28.8,27.6S199,102.3,183,102.3s-28.8-12.4-28.8-27.6     S167,47.1,183,47.1z M102.9,183.2c1.6-36.9,36.6-65.7,80.1-65.7s78.6,28.8,80.1,65.7c0,4.3-2.3,8.2-5.8,9.7     c-21.8,10.1-47.4,15.6-74.3,15.6c-26.4,0-52.1-5.4-74.3-15.6C105.2,190.9,102.9,187.1,102.9,183.2z M368.9,432.1H121.5     c-5.8,0-10.1-4.7-10.1-10.1c0-5.8,4.7-10.1,10.1-10.1h246.9c5.8,0,10.1,4.7,10.1,10.1C379,427.8,374.3,432.1,368.9,432.1z      M368.9,360.5H121.5c-5.8,0-10.1-4.7-10.1-10.1c0-5.8,4.7-10.1,10.1-10.1h246.9c5.8,0,10.1,4.7,10.1,10.1     C379,355.8,374.3,360.5,368.9,360.5z M368.9,288.6H121.5c-5.8,0-10.1-4.7-10.1-10.1c0-5.8,4.7-10.1,10.1-10.1h246.9     c5.8,0,10.1,4.7,10.1,10.1C379,283.9,374.3,288.6,368.9,288.6z"
   id="path2"
   style="fill:#eeeedd;fill-opacity:1" />
		</g>
	</g>
</g>
</svg>
