<?xml version="1.0" encoding="UTF-8" standalone="no"?>
<!-- Uploaded to: SVG Repo, www.svgrepo.com, Generator: SVG Repo Mixer Tools -->

<svg
   fill="#000000"
   height="800px"
   width="800px"
   version="1.1"
   id="Capa_1"
   viewBox="0 0 489.9 489.9"
   xml:space="preserve"
   sodipodi:docname="alarm-clock-svgrepo-com.svg"
   inkscape:version="1.2.2 (b0a8486541, 2022-12-01)"
   xmlns:inkscape="http://www.inkscape.org/namespaces/inkscape"
   xmlns:sodipodi="http://sodipodi.sourceforge.net/DTD/sodipodi-0.dtd"
   xmlns="http://www.w3.org/2000/svg"
   xmlns:svg="http://www.w3.org/2000/svg"><defs
   id="defs1103" /><sodipodi:namedview
   id="namedview1101"
   pagecolor="#ffffff"
   bordercolor="#000000"
   borderopacity="0.25"
   inkscape:showpageshadow="2"
   inkscape:pageopacity="0.0"
   inkscape:pagecheckerboard="0"
   inkscape:deskcolor="#d1d1d1"
   showgrid="false"
   inkscape:zoom="0.47287766"
   inkscape:cx="386.99227"
   inkscape:cy="394.39376"
   inkscape:window-width="1334"
   inkscape:window-height="744"
   inkscape:window-x="26"
   inkscape:window-y="0"
   inkscape:window-maximized="1"
   inkscape:current-layer="g1098" />
<g
   id="g1098">
	<g
   id="g1096"
   style="fill:#eeeedd;fill-opacity:1">
		<path
   d="M433.6,0H56.4C25.3,0,0,25.3,0,56.4v377.1c0,31.1,25.3,56.4,56.4,56.4h377.1c31.1,0,56.4-25.3,56.4-56.4V56.4    C490,25.3,464.7,0,433.6,0z M245,459.2c-118.2,0-214.6-96.4-214.6-214.6C30.4,126.4,126.8,30,245,30s214.6,96.4,214.6,214.6    C459.6,363.2,363.2,459.2,245,459.2z"
   id="path1092"
   style="fill:#eeeedd;fill-opacity:1" />
		<path
   d="M245,50.6c-106.9,0-194,87.1-194,194s87.1,194,194,194s194-87.1,194-194S351.9,50.6,245,50.6z M235.7,89.1    c0-5.4,4.3-9.3,9.3-9.3c5.4,0,9.3,4.3,9.3,9.3v16.3c0,5.4-4.3,9.3-9.3,9.3c-5.4,0-9.3-4.3-9.3-9.3L235.7,89.1L235.7,89.1z     M105.6,254.2H89.3c-5.4,0-9.3-4.3-9.3-9.3c0-5.4,4.3-9.3,9.3-9.3h16.3c5.4,0,9.3,4.3,9.3,9.3    C114.9,250.3,110.7,254.2,105.6,254.2z M128.3,128.1c3.8-3.8,9.6-3.6,13.2,0l11.5,11.5c3.8,3.8,3.6,9.6,0,13.2    c-3.8,3.8-9.6,3.6-13.2,0l-11.5-11.5C124.4,137.5,124.7,131.7,128.3,128.1z M153,350l-11.5,11.5c-3.8,3.8-9.6,3.6-13.2,0    c-3.8-3.8-3.6-9.6,0-13.2l11.5-11.5c3.8-3.8,9.6-3.6,13.2,0C156.9,340.6,156.6,346.4,153,350z M254.3,400.5c0,5.4-4.3,9.3-9.3,9.3    c-5.4,0-9.3-4.3-9.3-9.3v-16.3c0-5.4,4.3-9.3,9.3-9.3c5.4,0,9.3,4.3,9.3,9.3V400.5z M316.9,254.3H245c-5.4,0-9.3-4.3-9.3-9.3    v-94.9c0-5.4,4.3-9.3,9.3-9.3c5.4,0,9.3,4.3,9.3,9.3v85.1h62.2c5.4,0,9.3,4.3,9.3,9.3C326.3,250.1,322,254.3,316.9,254.3z     M337,139.6l11.5-11.5c3.8-3.8,9.6-3.6,13.2,0c3.8,3.8,3.6,9.6,0,13.2l-11.5,11.5c-3.8,3.8-9.6,3.6-13.2,0    C333.1,149,333.4,143.2,337,139.6z M361.7,361.5c-3.8,3.8-9.6,3.6-13.2,0L337,350c-3.8-3.8-3.6-9.6,0-13.2c3.8-3.8,9.6-3.6,13.2,0    l11.5,11.5C365.6,352.2,365.3,357.9,361.7,361.5z M400.7,254.1h-16.3c-5.4,0-9.3-4.3-9.3-9.3c0-5.4,4.3-9.3,9.3-9.3h16.3    c5.4,0,9.3,4.3,9.3,9.3C410,250.2,405.8,254.1,400.7,254.1z"
   id="path1094"
   style="fill:#eeeedd;fill-opacity:1" />
	</g>
</g>
</svg>
