<?xml version="1.0" encoding="UTF-8" standalone="no"?>
<!-- Uploaded to: SVG Repo, www.svgrepo.com, Generator: SVG Repo Mixer Tools -->

<svg
   fill="#000000"
   height="800px"
   width="800px"
   version="1.1"
   id="Capa_1"
   viewBox="0 0 490 490"
   xml:space="preserve"
   sodipodi:docname="placeholder-svgrepo-com.svg"
   inkscape:version="1.2.2 (b0a8486541, 2022-12-01)"
   xmlns:inkscape="http://www.inkscape.org/namespaces/inkscape"
   xmlns:sodipodi="http://sodipodi.sourceforge.net/DTD/sodipodi-0.dtd"
   xmlns="http://www.w3.org/2000/svg"
   xmlns:svg="http://www.w3.org/2000/svg"><defs
   id="defs149" /><sodipodi:namedview
   id="namedview147"
   pagecolor="#ffffff"
   bordercolor="#000000"
   borderopacity="0.25"
   inkscape:showpageshadow="2"
   inkscape:pageopacity="0.0"
   inkscape:pagecheckerboard="0"
   inkscape:deskcolor="#d1d1d1"
   showgrid="false"
   inkscape:zoom="0.69875"
   inkscape:cx="214.66905"
   inkscape:cy="401.43113"
   inkscape:window-width="1334"
   inkscape:window-height="744"
   inkscape:window-x="26"
   inkscape:window-y="0"
   inkscape:window-maximized="1"
   inkscape:current-layer="Capa_1" />
<g
   id="g144"
   style="fill:#eeeedd;fill-opacity:1">
	<g
   id="g142"
   style="fill:#eeeedd;fill-opacity:1">
		<path
   d="M245,0C150.5,0,73.5,76.6,73.5,171.5C73.5,266,245,490,245,490s171.5-224,171.5-318.4C416.5,76.6,339.5,0,245,0z     M245,274.5c-56.8,0-103-46.3-103-103s46.3-103,103-103s103,46.3,103,103S301.8,274.5,245,274.5z"
   id="path138"
   style="fill:#eeeedd;fill-opacity:1" />
		<path
   d="M308,182.8h-17.5v-49.4c0-5.4-4.3-9.7-9.7-9.7c-5.4,0-9.7,4.3-9.7,9.7v49.4h-15.6v-65.3c0-5.4-4.3-9.7-9.7-9.7    c-5.4,0-9.7,4.3-9.7,9.7v65.3h-15.6v-36.5c0-5.4-4.3-9.7-9.7-9.7s-9.7,4.3-9.7,9.7v36.5h-17.5c-5.4,0-9.7,4.3-9.7,9.7    s4.3,9.7,9.7,9.7h125.6c5.4,0,9.7-4.3,9.7-9.7C317.7,187.1,313.4,182.8,308,182.8z"
   id="path140"
   style="fill:#eeeedd;fill-opacity:1" />
	</g>
</g>
</svg>
