<?xml version="1.0" encoding="UTF-8" standalone="no"?>
<!-- Created with Inkscape (http://www.inkscape.org/) -->

<svg
   version="1.1"
   id="svg2"
   width="40"
   height="40"
   viewBox="0 0 680.2276 0"
   xmlns="http://www.w3.org/2000/svg"
   xmlns:svg="http://www.w3.org/2000/svg">
  <defs
     id="defs6" />
  <g
     id="layer1"
     transform="translate(-1330.3854,280.42001)">
    <path
       id="path29284"
       style="fill:#5fb1e1;fill-opacity:1;stroke-width:1.15707;paint-order:stroke fill markers"
       d="m 1337.1475,-280.42001 c -3.9693,0.007 -9.3224,1.60118 -5.3829,5.30064 l 18.6207,17.60298 18.6208,-17.60298 c 3.9395,-3.69946 -1.4137,-5.29409 -5.3829,-5.30064 -1.8042,-0.003 -3.6257,1.12004 -3.6257,1.12004 l -9.6122,9.29997 -9.6121,-9.29997 c 0,0 -1.8215,-1.12303 -3.6257,-1.12004 z m 0,17.09638 c -3.9693,0.007 -9.3224,1.60118 -5.3829,5.30064 l 18.6207,17.60298 18.6208,-17.60298 c 3.9395,-3.69946 -1.4137,-5.29409 -5.3829,-5.30064 -1.8042,-0.003 -3.6257,1.12004 -3.6257,1.12004 l -9.6122,9.29997 -9.6121,-9.29997 c 0,0 -1.8215,-1.12303 -3.6257,-1.12004 z" />
  </g>
</svg>
