<?xml version="1.0" encoding="UTF-8" standalone="no"?>
<!-- Created with Inkscape (http://www.inkscape.org/) -->

<svg
   version="1.1"
   id="svg2"
   width="39.999878"
   height="40"
   viewBox="0 0 680.2276 0"
   sodipodi:docname="elementos modulo01.svg"
   inkscape:version="1.2.2 (b0a8486541, 2022-12-01)"
   xmlns:inkscape="http://www.inkscape.org/namespaces/inkscape"
   xmlns:sodipodi="http://sodipodi.sourceforge.net/DTD/sodipodi-0.dtd"
   xmlns="http://www.w3.org/2000/svg"
   xmlns:svg="http://www.w3.org/2000/svg">
  <defs
     id="defs6" />
  <sodipodi:namedview
     id="namedview4"
     pagecolor="#ffffff"
     bordercolor="#000000"
     borderopacity="0.25"
     inkscape:showpageshadow="2"
     inkscape:pageopacity="0.0"
     inkscape:pagecheckerboard="0"
     inkscape:deskcolor="#d1d1d1"
     showgrid="false"
     inkscape:zoom="2.9279459"
     inkscape:cx="1148.2453"
     inkscape:cy="-388.15608"
     inkscape:window-width="1334"
     inkscape:window-height="744"
     inkscape:window-x="26"
     inkscape:window-y="0"
     inkscape:window-maximized="1"
     inkscape:current-layer="layer1"
     showguides="true">
    <inkscape:grid
       type="xygrid"
       id="grid28472" />
  </sodipodi:namedview>
  <g
     inkscape:groupmode="layer"
     id="layer1"
     inkscape:label="Page 14"
     transform="translate(-1429.3104,280.42001)">
    <path
       id="path29288"
       style="fill:#ff9900;fill-opacity:1;stroke-width:1.15707;paint-order:stroke fill markers"
       d="m 1436.0726,-280.42001 c -3.9693,0.007 -9.3224,1.60118 -5.3829,5.30064 l 18.6207,17.60298 18.6207,-17.60298 c 3.9395,-3.69946 -1.4137,-5.29409 -5.3829,-5.30064 -1.8042,-0.003 -3.6257,1.12004 -3.6257,1.12004 l -9.6122,9.29997 -9.6121,-9.29997 c 0,0 -1.8215,-1.12303 -3.6256,-1.12004 z m 0,17.09638 c -3.9693,0.007 -9.3224,1.60118 -5.3829,5.30064 l 18.6207,17.60298 18.6207,-17.60298 c 3.9395,-3.69946 -1.4137,-5.29409 -5.3829,-5.30064 -1.8042,-0.003 -3.6257,1.12004 -3.6257,1.12004 l -9.6122,9.29997 -9.6121,-9.29997 c 0,0 -1.8215,-1.12303 -3.6256,-1.12004 z" />
  </g>
</svg>
