<?xml version="1.0" encoding="UTF-8" standalone="no"?>
<!-- Created with Inkscape (http://www.inkscape.org/) -->

<svg
   version="1.1"
   id="svg2"
   width="127.19531"
   height="143.36914"
   viewBox="0 0 680.2276 0"
   sodipodi:docname="elementos modulo01.svg"
   inkscape:version="1.2.2 (b0a8486541, 2022-12-01)"
   xmlns:inkscape="http://www.inkscape.org/namespaces/inkscape"
   xmlns:sodipodi="http://sodipodi.sourceforge.net/DTD/sodipodi-0.dtd"
   xmlns="http://www.w3.org/2000/svg"
   xmlns:svg="http://www.w3.org/2000/svg">
  <defs
     id="defs6">
    <clipPath
       clipPathUnits="userSpaceOnUse"
       id="clipPath6372">
      <g
         id="g6380"
         transform="matrix(508.00102,0,0,-508.00102,0,205740.41)">
        <g
           id="g6378">
          <g
             id="g6376">
            <path
               d="M 0,405 H 719.99856 V 8.1e-4 H 0 Z"
               id="path6374"
               style="stroke-width:0.0019685" />
          </g>
        </g>
      </g>
    </clipPath>
  </defs>
  <sodipodi:namedview
     id="namedview4"
     pagecolor="#ffffff"
     bordercolor="#000000"
     borderopacity="0.25"
     inkscape:showpageshadow="2"
     inkscape:pageopacity="0.0"
     inkscape:pagecheckerboard="0"
     inkscape:deskcolor="#d1d1d1"
     showgrid="false"
     inkscape:zoom="2.9279459"
     inkscape:cx="1148.2453"
     inkscape:cy="-388.15608"
     inkscape:window-width="1334"
     inkscape:window-height="744"
     inkscape:window-x="26"
     inkscape:window-y="0"
     inkscape:window-maximized="1"
     inkscape:current-layer="layer1"
     showguides="true" />
  <g
     id="g98"
     inkscape:groupmode="layer"
     inkscape:label="Page 2"
     transform="matrix(1.3333333,0,0,-1.3333333,-39.851118,148.22425)">
    <g
       id="g202"
       transform="matrix(0.0019685,0,0,-0.0019685,0,405)"
       clip-path="url(#clipPath6372)">
      <path
         d="m -13740,144397 h 78485.996 v 78486 H -13740 Z"
         style="fill:#000000;fill-opacity:0;fill-rule:evenodd;stroke:none"
         id="path204" />
    </g>
    <path
       id="path10204"
       style="color:#000000;fill:#5fb0e6;stroke-width:0.99975;stroke-dasharray:7.49738, 2.49913;stroke-dashoffset:0;paint-order:stroke fill markers"
       d="m 122.82535,111.16819 c -1.35871,5e-5 -2.46004,-1.15637 -2.45947,-2.58252 2.1e-4,-1.42557 1.1013,-2.5811 2.45947,-2.58105 1.35817,-5e-5 2.45926,1.15548 2.45947,2.58105 5.7e-4,1.42615 -1.10076,2.58257 -2.45947,2.58252 z m -1.48828,-6.8042 c -0.37667,-1.30677 -0.7634,-2.60718 -1.17334,-3.89795 l 2.38037,-0.755856 c 0.41844,1.317556 0.81402,2.638116 1.19531,3.960936 z m -1.94092,-6.259274 c -0.78262,-2.351968 -1.62441,-4.683835 -2.52979,-6.98877 l 2.32911,-0.914063 c 0.92243,2.348358 1.77791,4.721654 2.57373,7.113282 z m -3.45264,-9.28711 c -0.94456,-2.288591 -1.95577,-4.550884 -3.03369,-6.777832 l 2.25,-1.089844 c 1.10026,2.27309 2.131,4.579912 3.09375,6.912598 z m -4.13525,-8.994141 c -1.12166,-2.203648 -2.31265,-4.370716 -3.58008,-6.490723 l 2.14453,-1.280273 c 1.29794,2.171046 2.51745,4.386967 3.66358,6.638672 z M 52.255039,72.902078 52.102696,70.405984 c 0.68842,-0.04189 1.378318,-0.159546 2.049316,-0.345703 1.471826,-0.407548 2.86437,-1.165082 4.085449,-2.147461 l 1.567383,1.948242 c -1.454652,1.170293 -3.13916,2.097812 -4.984863,2.608887 v -0.0015 c -0.833623,0.231275 -1.694528,0.380634 -2.564942,0.433594 z M 49.505528,72.781961 C 47.248904,72.449304 45.149991,71.56896 43.272617,70.442605 h -0.0015 c -0.386659,-0.232753 -0.772744,-0.477772 -1.152832,-0.739746 l 1.420899,-2.05957 c 0.328885,0.226683 0.668617,0.444953 1.019531,0.65625 h 0.0015 c 1.663159,0.997626 3.462991,1.736242 5.308594,2.008301 z m 57.432122,-1.554199 c -1.31502,-2.090347 -2.70571,-4.132285 -4.1748,-6.112793 l 2.0083,-1.491211 c 1.50943,2.034886 2.93469,4.1312 4.28174,6.272461 z M 40.036777,68.123758 c -1.49485,-1.245736 -2.859654,-2.619938 -4.126465,-4.060547 l -0.0029,-0.0015 -0.0015,-0.0015 c -0.428488,-0.491232 -0.849239,-0.997426 -1.253906,-1.520508 l 1.979003,-1.529297 c 0.368022,0.475713 0.75431,0.942979 1.155762,1.403321 1.198989,1.363482 2.47431,2.644891 3.84961,3.791015 z m 21.725098,-0.09961 -1.838378,-1.693359 c 0.261694,-0.283923 0.516445,-0.577413 0.761718,-0.881836 1.226001,-1.524739 2.226393,-3.250627 3.041016,-5.071289 l 2.280762,1.019531 c -0.885652,1.97941 -1.988719,3.8936 -3.375,5.617676 -0.277334,0.344267 -0.567216,0.680649 -0.870118,1.009277 z m 39.505365,-4.87207 c -1.518305,-1.941603 -3.118263,-3.821152 -4.797356,-5.622071 l 1.828125,-1.702148 c 1.730191,1.855723 3.376711,3.786672 4.937981,5.783203 z M 33.141758,60.41575 c -1.415471,-2.197347 -2.55975,-4.663771 -3.030762,-7.344727 l 2.462402,-0.430664 c 0.396379,2.25614 1.384963,4.426372 2.67041,6.421875 z m 33.826172,-1.426758 -2.351074,-0.845215 0.0044,-0.01172 -0.0044,0.0059 c 0.799795,-2.266486 1.351761,-4.627411 1.686035,-7.023926 l 2.474121,0.345703 c -0.355046,2.545438 -0.94182,5.069185 -1.803222,7.510254 v 0.0044 z M 94.764806,55.754617 C 93.0335,54.005334 91.222589,52.336945 89.333165,50.765359 l 1.59961,-1.921875 c 1.954291,1.625541 3.824895,3.34786 5.610351,5.151855 z M 32.388828,50.38157 29.88834,50.3552 c 0.02096,-1.966001 0.491581,-3.916803 1.369628,-5.677735 0.354569,-0.713873 0.769168,-1.395416 1.239258,-2.036133 l 2.015625,1.479492 c -0.38649,0.526774 -0.727,1.083921 -1.016601,1.666993 v 0.0029 h -0.0029 c -0.707094,1.417578 -1.087592,3.005517 -1.104492,4.590821 z M 87.41715,49.225808 c -1.939111,-1.506875 -3.955108,-2.911462 -6.043946,-4.196777 l 1.308106,-2.129883 c 2.169077,1.33469 4.261216,2.791396 6.269531,4.352051 z m -18.360352,-0.32373 -2.490235,-0.197754 c 0.191728,-2.419684 0.170328,-4.85841 -0.04981,-7.278809 l 2.490235,-0.227051 c 0.23268,2.558334 0.252996,5.139276 0.04981,7.703614 z m 10.202637,-5.119629 c -2.13488,-1.205053 -4.33704,-2.286662 -6.597657,-3.222657 l 0.955078,-2.308594 c 2.35873,0.976619 4.652886,2.103598 6.871582,3.355958 z M 36.018711,42.404031 34.284336,40.602273 c 1.735904,-1.67207 3.785364,-2.934212 5.923828,-3.886231 l 0.0044,-0.0015 0.0044,-0.0029 c 0.245638,-0.10735 0.507314,-0.222785 0.788086,-0.333985 l 0.921387,2.324707 c -0.219711,0.08702 -0.453379,0.189489 -0.700196,0.297364 -0.0019,9e-4 -0.004,6.33e-4 -0.0059,0.0015 l -0.0015,0.0015 c -1.92576,0.858213 -3.722471,1.977983 -5.200195,3.401368 z m 34.36377,-2.730469 c -0.950729,-0.346959 -2.910644,-0.84375 -2.910644,-0.84375 l -1.378418,-0.401368 c 0,0 -1.812346,-0.594175 -2.742188,-0.793945 L 63.87711,35.19114 c 0.530587,0.113993 1.033575,0.321027 1.560059,0.451172 -0.286375,-1.24043 -0.477874,-2.504479 -0.874512,-3.713379 l 2.374512,-0.779297 c 0.565659,1.724052 0.893295,3.511129 1.246582,5.289551 1.015623,0.308086 2.059828,0.521346 3.055664,0.884765 z M 44.18082,37.911355 43.464512,35.516335 c 2.498594,-0.74985 5.073187,-1.168195 7.646484,-1.338867 l 0.165528,2.493164 c -2.412781,0.160026 -4.804266,0.553042 -7.095704,1.240723 z M 60.956211,37.180398 C 58.552416,36.786731 56.12076,36.577236 53.696446,36.587136 l -0.0088,-2.500488 c 2.575466,-0.0105 5.142409,0.212785 7.671386,0.626953 z m 2.781739,-7.532227 c -0.888466,-2.255912 -1.980841,-4.432088 -3.263672,-6.486328 l 2.121094,-1.324219 c 1.365356,2.186391 2.525279,4.497978 3.46875,6.893555 z m -4.609864,-8.500489 c -1.4058,-1.969255 -3.001189,-3.803686 -4.754883,-5.472656 l 1.722657,-1.810547 c 1.867773,1.77754 3.569364,3.730274 5.068359,5.830078 z m -6.55957,-7.088379 C 50.713502,12.501591 48.711331,11.116614 46.603672,9.9137952 l 1.237793,-2.1723633 c 2.234138,1.2749991 4.360244,2.7473761 6.333985,4.4047851 z M 44.460606,8.7653577 C 42.286289,7.6776928 40.018132,6.7692997 37.694492,6.0231701 l 0.764649,-2.3818359 c 2.436035,0.7822203 4.82173,1.7394313 7.11914,2.8886719 z"
       inkscape:export-filename="elemento-trayecto.svg"
       inkscape:export-xdpi="96"
       inkscape:export-ydpi="96"
       sodipodi:nodetypes="scscscccccccccccccccccccccccccccccccccccccccccccccccccccccccccccccccccccccccccccccccccccccccccccccccccccccccccccccccccscccccccccccccccccccccccccccccccccccccccccccc" />
  </g>
</svg>
