<?xml version="1.0" encoding="UTF-8" standalone="no"?>
<!-- Created with Inkscape (http://www.inkscape.org/) -->

<svg
   version="1.1"
   id="svg2"
   width="40.602539"
   height="42.15625"
   viewBox="0 0 680.2276 0"
   xmlns="http://www.w3.org/2000/svg"
   xmlns:svg="http://www.w3.org/2000/svg">
  <defs
     id="defs6" />
  <g
     id="g98"
     transform="matrix(1.3333333,0,0,-1.3333333,-939.69786,265.02653)">
    <path
       id="rect1635"
       style="fill:#00b3e6;fill-opacity:1;stroke-width:1.58844;stroke-dasharray:11.9121, 3.97072;paint-order:stroke fill markers"
       d="m 707.16147,-198.7699 c -1.29147,0 -2.6866,1.09019 -2.33203,2.33203 l 0.92578,3.2417 c 0.35457,1.24184 1.0406,2.33056 2.33203,2.33056 h 11.91211 11.91211 c 1.29145,0 1.97747,-1.08872 2.33204,-2.33056 l 0.92578,-3.2417 c 0.35457,-1.24184 -1.04058,-2.33203 -2.33203,-2.33203 h -12.8379 z m 1.07666,11.85644 c -1.29147,0 -2.33203,1.0406 -2.33203,2.33203 v 1.62012 1.62012 c 0,1.29144 1.04056,2.33203 2.33203,2.33203 h 11.76123 11.76123 c 1.29147,0 2.33204,-1.04059 2.33204,-2.33203 v -1.62012 -1.62012 c 0,-1.29143 -1.04057,-2.33203 -2.33204,-2.33203 h -11.76123 z m -0.15088,11.85645 c -1.29143,0 -1.97746,1.08873 -2.33203,2.33057 l -0.92578,3.24169 c -0.35457,1.24184 1.04056,2.33204 2.33203,2.33204 h 12.83789 12.8379 c 1.29145,0 2.6866,-1.0902 2.33203,-2.33204 l -0.92578,-3.24169 c -0.35457,-1.24184 -1.04059,-2.33057 -2.33204,-2.33057 h -11.91211 z"
       transform="scale(1,-1)" />
  </g>
</svg>
